<?xml version="1.0" encoding="UTF-8" standalone="no"?>
<!-- Created with Inkscape (http://www.inkscape.org/) -->

<svg
   width="70.194763mm"
   height="69.873062mm"
   viewBox="0 0 70.194763 69.873062"
   version="1.1"
   id="svg5"
   xml:space="preserve"
   inkscape:version="1.2.2 (b0a8486541, 2022-12-01)"
   sodipodi:docname="drawing.svg"
   xmlns:inkscape="http://www.inkscape.org/namespaces/inkscape"
   xmlns:sodipodi="http://sodipodi.sourceforge.net/DTD/sodipodi-0.dtd"
   xmlns="http://www.w3.org/2000/svg"
   xmlns:svg="http://www.w3.org/2000/svg"><sodipodi:namedview
     id="namedview7"
     pagecolor="#ffffff"
     bordercolor="#666666"
     borderopacity="1.0"
     inkscape:showpageshadow="2"
     inkscape:pageopacity="0.0"
     inkscape:pagecheckerboard="0"
     inkscape:deskcolor="#d1d1d1"
     inkscape:document-units="mm"
     showgrid="false"
     inkscape:zoom="1.5636518"
     inkscape:cx="-250.05568"
     inkscape:cy="198.57363"
     inkscape:window-width="2558"
     inkscape:window-height="1390"
     inkscape:window-x="0"
     inkscape:window-y="24"
     inkscape:window-maximized="1"
     inkscape:current-layer="svg5"><inkscape:page
       x="0"
       y="0"
       width="70.194763"
       height="69.873062"
       id="page705"
       inkscape:export-filename="robot_tegonal-farbig.png"
       inkscape:export-xdpi="96"
       inkscape:export-ydpi="96" /><inkscape:page
       x="-11.566248"
       y="-11.963967"
       width="93.283264"
       height="93.283272"
       id="page707" /></sodipodi:namedview><defs
     id="defs2"><clipPath
       clipPathUnits="userSpaceOnUse"
       id="clipPath27"><path
         d="M 24.496,239.929 H 239.929 V 24.496 H 24.496 Z"
         id="path25" /></clipPath></defs><g
     inkscape:label="Layer 1"
     inkscape:groupmode="layer"
     id="layer1"
     transform="translate(-231.56625,-11.963967)" /><path
     d="M 72.299963,71.682117 H -2.222927 V -2.66333 h 74.52289 z"
     style="fill:#f57969;fill-opacity:1;fill-rule:nonzero;stroke:#f57969;stroke-width:0.298803;stroke-linecap:butt;stroke-linejoin:miter;stroke-miterlimit:10;stroke-dasharray:none;stroke-opacity:1"
     id="path19" /><g
     id="g21"
     transform="matrix(0.35277776,0,0,-0.35277778,-11.566247,81.3193)"><g
       id="g23"
       clip-path="url(#clipPath27)"><g
         id="g29"
         transform="translate(200.4718,63.7231)"><path
           d="m 0,0 v 9.928 c 0,4.608 3.735,8.343 8.344,8.343 h 3.304 c 2.902,0 5.253,2.352 5.253,5.253 0,2.902 -2.351,5.253 -5.253,5.253 h -27.036 c -3.308,0 -6.482,-1.314 -8.822,-3.654 -2.34,-2.34 -5.513,-3.654 -8.822,-3.654 h -23.154"
           style="fill:none;stroke:#2c378a;stroke-width:0.922;stroke-linecap:round;stroke-linejoin:round;stroke-miterlimit:10;stroke-dasharray:none;stroke-opacity:1"
           id="path31" /></g><g
         id="g33"
         transform="translate(200.4718,63.7231)"><path
           d="m 0,0 v 9.928 c 0,4.608 3.735,8.343 8.344,8.343 h 3.304 c 2.902,0 5.253,2.352 5.253,5.253 0,2.902 -2.351,5.253 -5.253,5.253 h -27.036 c -3.308,0 -6.482,-1.314 -8.822,-3.654 -2.34,-2.34 -5.513,-3.654 -8.822,-3.654 h -23.154"
           style="fill:none;stroke:#ffffff;stroke-width:0.922;stroke-linecap:butt;stroke-linejoin:round;stroke-miterlimit:10;stroke-dasharray:1.845, 3.69;stroke-dashoffset:0;stroke-opacity:1"
           id="path35" /></g><g
         id="g37"
         transform="translate(133.3292,52.8676)"><path
           d="m 0,0 h -12.503 c -3.805,0 -7.566,0.818 -11.027,2.398 -3.462,1.581 -7.223,2.399 -11.029,2.399 h -23.034 c -8.241,0 -14.922,6.681 -14.922,14.922 v 1.073 c 0,8.241 6.681,14.922 14.922,14.922 h 26.489 c 3.175,0 6.161,-1.511 8.042,-4.068 l 7.604,-10.34"
           style="fill:none;stroke:#ffffff;stroke-width:0.922;stroke-linecap:butt;stroke-linejoin:round;stroke-miterlimit:10;stroke-dasharray:none;stroke-opacity:1"
           id="path39" /></g><g
         id="g41"
         transform="translate(93.4718,146.4477)"><path
           d="m 0,0 c -0.706,0 -1.278,0.572 -1.278,1.278 0,0.706 0.572,1.279 1.278,1.279 0.705,0 1.277,-0.573 1.277,-1.279 C 1.277,0.572 0.705,0 0,0 m 2.573,3.871 -3.532,0.933 -2.574,-2.593 0.959,-3.526 3.533,-0.933 2.573,2.594 z"
           style="fill:#24265d;fill-opacity:1;fill-rule:nonzero;stroke:none"
           id="path43" /></g><g
         id="g45"
         transform="translate(68.9093,137.4301)"><path
           d="M 0,0 C -0.611,-0.353 -1.393,-0.144 -1.746,0.468 -2.099,1.079 -1.89,1.86 -1.278,2.214 -0.668,2.566 0.114,2.357 0.467,1.746 0.82,1.135 0.611,0.354 0,0 m 0.292,4.64 -3.525,-0.959 -0.932,-3.534 2.594,-2.573 3.525,0.959 0.932,3.533 z"
           style="fill:#f9de46;fill-opacity:1;fill-rule:nonzero;stroke:none"
           id="path47" /></g><g
         id="g49"
         transform="translate(149.3117,213.9955)"><path
           d="m 0,0 c -1.09,0 -1.974,0.884 -1.974,1.975 0,1.089 0.884,1.973 1.974,1.973 1.091,0 1.974,-0.884 1.974,-1.973 C 1.974,0.884 1.091,0 0,0 m 0,6.056 c -2.254,0 -4.081,-1.827 -4.081,-4.081 0,-2.254 1.827,-4.082 4.081,-4.082 2.254,0 4.082,1.828 4.082,4.082 0,2.254 -1.828,4.081 -4.082,4.081"
           style="fill:#f9de46;fill-opacity:1;fill-rule:nonzero;stroke:none"
           id="path51" /></g><g
         id="g53"
         transform="translate(154.8703,201.8002)"><path
           d="M 0,0 C -0.661,-0.246 -1.397,0.092 -1.643,0.753 -1.889,1.415 -1.552,2.15 -0.89,2.396 -0.229,2.642 0.508,2.305 0.753,1.643 0.999,0.981 0.662,0.245 0,0 m 1.065,4.525 -3.636,-0.356 -1.51,-3.327 2.126,-2.971 3.637,0.356 1.509,3.327 z"
           style="fill:#24265d;fill-opacity:1;fill-rule:nonzero;stroke:none"
           id="path55" /></g><g
         id="g57"
         transform="translate(144.6154,49.808)"><path
           d="m 0,0 c -0.593,0 -0.93,-0.431 -0.93,-1.126 0,-0.707 0.37,-1.192 0.984,-1.192 0.472,0 0.91,0.282 0.91,1.172 C 0.964,-0.256 0.526,0 0,0"
           style="fill:#ffffff;fill-opacity:1;fill-rule:nonzero;stroke:none"
           id="path59" /></g><g
         id="g61"
         transform="translate(156.0646,47.8734)"><path
           d="m 0,0 c 0,-0.276 0.209,-0.546 0.641,-0.546 0.552,0 0.91,0.58 0.91,1.086 V 0.654 H 1.382 C 0.89,0.654 0,0.627 0,0"
           style="fill:#ffffff;fill-opacity:1;fill-rule:nonzero;stroke:none"
           id="path63" /></g><g
         id="g65"
         transform="translate(140.9962,49.8559)"><path
           d="M 0,0 C -0.498,0 -0.902,-0.304 -1.004,-0.87 H 0.803 C 0.782,-0.304 0.425,0 0,0"
           style="fill:#ffffff;fill-opacity:1;fill-rule:nonzero;stroke:none"
           id="path67" /></g><g
         id="g69"
         transform="translate(148.8546,49.808)"><path
           d="m 0,0 c -0.641,0 -1.166,-0.505 -1.166,-1.213 0,-0.715 0.525,-1.226 1.166,-1.226 0.646,0 1.173,0.511 1.173,1.226 C 1.173,-0.505 0.647,0 0,0"
           style="fill:#ffffff;fill-opacity:1;fill-rule:nonzero;stroke:none"
           id="path71" /></g><g
         id="g73"
         transform="translate(172.3165,55.7475)"><path
           d="M 0,0 C 0,-0.046 -0.015,-0.069 -0.04,-0.096 L -2.524,-2.357 C -2.531,-2.364 -2.54,-2.375 -2.541,-2.391 v -3.101 c 0,-0.039 -0.008,-0.054 -0.025,-0.078 -0.014,-0.019 -2.663,-3.323 -2.663,-3.323 -0.03,-0.038 -0.071,-0.025 -0.071,0.018 0,1.01 0.004,7.288 0.004,7.315 0,0.023 0.015,0.036 0.043,0.026 0.027,-0.009 2.357,-0.729 2.676,-0.827 h 10e-4 c 0.025,-0.007 0.033,0.007 0.035,0.031 v 3.384 c -0.002,0.022 -0.014,0.039 -0.038,0.047 l -10e-4,0.001 -7.767,2.286 c -0.029,0.008 -0.026,0.044 10e-4,0.05 l 3.201,0.832 c 0.061,0.012 0.083,0.013 0.14,0 0,0 6.906,-1.862 6.949,-1.874 C -0.014,2.386 0,2.375 0,2.332 0.002,2.302 0.001,0.365 0,0 m -12.938,-8.866 0.002,4.053 c 0,0.1 -0.054,0.148 -0.149,0.148 h -0.275 v 0.56 h 0.646 c 0.304,0 0.432,-0.128 0.418,-0.432 l 0.005,-4.329 z m -0.644,10e-4 h -0.661 c -0.303,0 -0.424,0.149 -0.424,0.391 0,0.115 0.013,0.203 0.013,0.203 h -0.013 c 0,0 -0.271,-0.675 -1.086,-0.675 -0.586,0 -1.159,0.358 -1.159,1.039 0,1.098 1.482,1.166 2.056,1.166 h 0.148 v 0.033 c 0,0.601 -0.223,0.816 -0.755,0.816 -0.162,0 -0.559,-0.041 -0.559,-0.262 v -0.197 h -0.614 v 0.337 c 0,0.56 0.85,0.641 1.18,0.641 1.105,0 1.401,-0.58 1.401,-1.335 v -1.449 c 0,-0.101 0.055,-0.149 0.15,-0.149 h 0.323 z m -3.714,0 h -0.646 c -0.304,0 -0.432,0.128 -0.432,0.431 v 1.605 c 0,0.478 -0.094,0.856 -0.64,0.856 -0.526,0 -0.944,-0.343 -1.079,-0.836 -0.047,-0.134 -0.06,-0.29 -0.06,-0.459 v -1.597 h -0.655 v 2.703 c 0,0.101 -0.053,0.148 -0.147,0.148 H -21.6 v 0.56 h 0.996 c 0.29,0 0.43,-0.128 0.43,-0.377 V -5.96 c 0,-0.107 -0.013,-0.194 -0.013,-0.194 h 0.013 c 0.135,0.296 0.54,0.781 1.281,0.781 0.809,0 1.173,-0.439 1.173,-1.308 v -1.476 c 0,-0.101 0.054,-0.149 0.149,-0.149 h 0.275 z m -6.166,-0.081 c -1.017,0 -1.834,0.755 -1.834,1.794 0,1.031 0.817,1.779 1.834,1.779 1.018,0 1.841,-0.748 1.841,-1.779 0,-1.039 -0.823,-1.794 -1.841,-1.794 m -1.862,2.932 h -0.631 c -0.087,0 -0.149,-0.047 -0.149,-0.134 v -2.575 c 0,-1.126 -0.855,-1.557 -1.718,-1.557 -0.411,0 -0.829,0.114 -1.166,0.283 l 0.222,0.525 c 0,0 0.418,-0.228 0.93,-0.228 0.594,0 1.079,0.262 1.079,0.95 v 0.229 c 0,0.108 0.014,0.216 0.014,0.216 h -0.014 c -0.202,-0.331 -0.519,-0.519 -1.018,-0.519 -0.944,0 -1.524,0.761 -1.524,1.746 0,0.977 0.546,1.705 1.497,1.705 0.85,0 1.092,-0.532 1.092,-0.532 h 0.014 v 0.107 c 0,0.202 0.107,0.344 0.377,0.344 h 0.995 z m -4.54,-1.226 h -2.487 c 0.04,-0.728 0.566,-1.139 1.172,-1.139 0.587,0 0.998,0.397 0.998,0.397 l 0.284,-0.465 c 0,0 -0.506,-0.499 -1.315,-0.499 -1.079,0 -1.813,0.776 -1.813,1.787 0,1.085 0.741,1.786 1.712,1.786 0.957,0 1.469,-0.715 1.469,-1.598 0,-0.088 -0.019,-0.269 -0.02,-0.269 m -3.446,-1.625 h -0.478 c -0.96,0 -1.223,0.354 -1.223,1.126 l -10e-4,3.634 h 0.656 v -1.348 h 1.033 v -0.568 h -1.033 V -7.73 c 0,-0.456 0.135,-0.576 0.572,-0.576 h 0.474 z m -7.137,-4.858 H 5.257 V 8.891 h -45.704 z"
           style="fill:#ffffff;fill-opacity:1;fill-rule:nonzero;stroke:none"
           id="path75" /></g><g
         id="g77"
         transform="translate(175.2033,167.5092)"><path
           d="M 0,0 C -0.559,1.051 -1.915,2.1 -3.512,1.764 -4.621,1.53 -5.424,0.621 -5.725,-0.496 -5.806,-0.8 -6.16,-0.921 -6.407,-0.726 c -0.831,0.657 -1.901,0.914 -2.879,0.545 -1.527,-0.576 -2.108,-2.189 -2.012,-3.376 0.145,-1.808 1.85,-2.829 3.265,-3.655 1.149,-0.671 2.635,-1.476 4.001,-2.127 0.057,-0.027 0.114,-0.055 0.171,-0.081 0.192,-0.09 0.422,-0.026 0.537,0.152 0.096,0.149 0.194,0.302 0.292,0.458 0.806,1.29 1.633,2.781 2.245,3.972 C -0.039,-3.38 0.85,-1.603 0,0"
           style="fill:#f9de46;fill-opacity:1;fill-rule:nonzero;stroke:none"
           id="path79" /></g><g
         id="g81"
         transform="translate(167.0216,160.3979)"><path
           d="m 0,0 1.189,1.887 2.26,0.511"
           style="fill:none;stroke:#2c378a;stroke-width:0.796;stroke-linecap:butt;stroke-linejoin:round;stroke-miterlimit:10;stroke-dasharray:none;stroke-opacity:1"
           id="path83" /></g><g
         id="g85"
         transform="translate(171.214,163.6527)"><path
           d="m 0,0 c 0.418,-0.264 0.543,-0.816 0.279,-1.234 -0.263,-0.417 -0.815,-0.543 -1.233,-0.28 -0.418,0.264 -0.543,0.817 -0.28,1.235 C -0.971,0.139 -0.418,0.264 0,0"
           style="fill:#24265d;fill-opacity:1;fill-rule:nonzero;stroke:none"
           id="path87" /></g><g
         id="g89"
         transform="translate(167.1701,165.2397)"><path
           d="M 0,0 C 0.418,-0.264 0.544,-0.816 0.28,-1.234 0.017,-1.652 -0.536,-1.777 -0.954,-1.514 -1.372,-1.25 -1.497,-0.697 -1.233,-0.279 -0.97,0.138 -0.417,0.264 0,0 Z"
           style="fill:none;stroke:#2c378a;stroke-width:0.706;stroke-linecap:butt;stroke-linejoin:miter;stroke-miterlimit:10;stroke-dasharray:none;stroke-opacity:1"
           id="path91" /></g><g
         id="g93"
         transform="translate(172.2833,167.7856)"><path
           d="M 0,0 1.791,-1.075"
           style="fill:#ffffff;fill-opacity:1;fill-rule:nonzero;stroke:#2c378a;stroke-width:0.796;stroke-linecap:butt;stroke-linejoin:round;stroke-miterlimit:10;stroke-dasharray:none;stroke-opacity:1"
           id="path95" /></g><g
         id="g97"
         transform="translate(171.5158,166.557)"><path
           d="M 0,0 1.791,-1.075"
           style="fill:#ffffff;fill-opacity:1;fill-rule:nonzero;stroke:#2c378a;stroke-width:0.796;stroke-linecap:butt;stroke-linejoin:round;stroke-miterlimit:10;stroke-dasharray:none;stroke-opacity:1"
           id="path99" /></g><g
         id="g101"
         transform="translate(170.8497,165.226)"><path
           d="M 0,0 1.792,-1.074"
           style="fill:#ffffff;fill-opacity:1;fill-rule:nonzero;stroke:#2c378a;stroke-width:0.796;stroke-linecap:butt;stroke-linejoin:round;stroke-miterlimit:10;stroke-dasharray:none;stroke-opacity:1"
           id="path103" /></g><g
         id="g105"
         transform="translate(190.3663,177.7455)"><path
           d="m 0,0 c -1.589,-2.274 -4.594,-4.914 -4.669,-7.202 -0.065,-2.005 1.353,-3.114 2.799,-4.305 2.674,-2.201 5.141,-4.716 8.172,-6.394 2.196,-1.217 2.714,-0.801 3.619,1.366 0.728,1.744 2.452,4.482 1.297,5.993 -1.857,2.43 -5.781,0.771 -8.206,1.029 2.945,0.661 5.664,0.919 5.506,4.732 0.301,0.134 0.58,0.124 0.907,0.059"
           style="fill:#24265d;fill-opacity:1;fill-rule:nonzero;stroke:none"
           id="path107" /></g><g
         id="g109"
         transform="translate(202.1007,175.3012)"><path
           d="m 0,0 c 2.063,-3.43 3.748,-12.799 -2.858,-11.22 -4.198,1.003 -11.932,5.119 -3.827,7.308"
           style="fill:#24265d;fill-opacity:1;fill-rule:nonzero;stroke:none"
           id="path111" /></g><g
         id="g113"
         transform="translate(222.1818,178.4174)"><path
           d="M 0,0 C -4.434,4.162 -11.692,12.803 -14.138,13.674 -17.861,15 -22.073,13.653 -25.885,9.788"
           style="fill:#24265d;fill-opacity:1;fill-rule:nonzero;stroke:none"
           id="path115" /></g><g
         id="g117"
         transform="translate(178.8458,169.9281)"><path
           d="M 0,0 -1.936,-1.414"
           style="fill:none;stroke:#ffffff;stroke-width:0.847;stroke-linecap:butt;stroke-linejoin:miter;stroke-miterlimit:10;stroke-dasharray:none;stroke-opacity:1"
           id="path119" /></g><g
         id="g121"
         transform="translate(177.5802,165.4623)"><path
           d="M 0,0 2.755,-0.075"
           style="fill:none;stroke:#ffffff;stroke-width:0.847;stroke-linecap:butt;stroke-linejoin:miter;stroke-miterlimit:10;stroke-dasharray:none;stroke-opacity:1"
           id="path123" /></g><g
         id="g125"
         transform="translate(177.2833,162.6332)"><path
           d="M 0,0 2.232,-1.191"
           style="fill:none;stroke:#ffffff;stroke-width:0.847;stroke-linecap:butt;stroke-linejoin:miter;stroke-miterlimit:10;stroke-dasharray:none;stroke-opacity:1"
           id="path127" /></g><g
         id="g129"
         transform="translate(157.0333,170.394)"><path
           d="M 0,0 C 1.187,-9.561 2.308,-27.244 0,-45.226"
           style="fill:none;stroke:#f9de46;stroke-width:2.951;stroke-linecap:round;stroke-linejoin:round;stroke-miterlimit:10;stroke-dasharray:none;stroke-opacity:1"
           id="path131" /></g><g
         id="g133"
         transform="translate(137.6115,79.3588)"><path
           d="m 0,0 v -0.428 c 0,-0.718 0.341,-1.391 0.917,-1.818 1.648,-1.222 5.046,-3.662 6.173,-3.888 1.508,-0.302 4.826,0 4.826,0 v 0.905 l -8.095,3.068 z"
           style="fill:#ffffff;fill-opacity:1;fill-rule:nonzero;stroke:none"
           id="path135" /></g><g
         id="g137"
         transform="translate(123.9806,146.4926)"><path
           d="M 0,0 C 0,-23.464 -2.707,-58.66 0,-64.419"
           style="fill:none;stroke:#f14624;stroke-width:3.934;stroke-linecap:butt;stroke-linejoin:round;stroke-miterlimit:10;stroke-dasharray:none;stroke-opacity:1"
           id="path139" /></g><g
         id="g141"
         transform="translate(140.7111,146.4926)"><path
           d="M 0,0 C 0,-18.345 2.077,-52.475 0,-64.419"
           style="fill:#939593;fill-opacity:1;fill-rule:nonzero;stroke:#f14624;stroke-width:3.934;stroke-linecap:butt;stroke-linejoin:round;stroke-miterlimit:10;stroke-dasharray:none;stroke-opacity:1"
           id="path143" /></g><g
         id="g145"
         transform="translate(131.173,201.8568)"><path
           d="M 0,0 C 3.514,-0.128 4.179,-1.34 5.041,-3.267 L -5.031,-3.281 C -4.175,-1.353 -3.447,0.125 0,0"
           style="fill:#f14624;fill-opacity:1;fill-rule:nonzero;stroke:none"
           id="path147" /></g><g
         id="g149"
         transform="translate(137.3703,197.7963)"><path
           d="m 0,0 -0.002,1.204 c 0,0.336 -0.272,0.608 -0.608,0.607 L -11.777,1.794 c -0.336,0 -0.608,-0.273 -0.608,-0.609 l 0.002,-1.204"
           style="fill:#f14624;fill-opacity:1;fill-rule:nonzero;stroke:none"
           id="path151" /></g><g
         id="g153"
         transform="translate(132.1603,202.6947)"><path
           d="m 0,0 c 0.001,-0.546 -0.441,-0.989 -0.987,-0.99 -0.546,-0.001 -0.99,0.441 -0.991,0.987 -0.001,0.546 0.442,0.989 0.988,0.99 C -0.444,0.988 -0.001,0.546 0,0"
           style="fill:#f14624;fill-opacity:1;fill-rule:nonzero;stroke:none"
           id="path155" /></g><g
         id="g157"
         transform="translate(142.9533,146.3129)"><path
           d="m 0,0 h -20.94 l -0.848,5.659 H 0.848 Z"
           style="fill:#005446;fill-opacity:1;fill-rule:nonzero;stroke:none"
           id="path159" /></g><path
         d="m 135.47,177.751 h -7.073 v 3.144 h 7.073 z"
         style="fill:#24265d;fill-opacity:1;fill-rule:nonzero;stroke:none"
         id="path161" /><g
         id="g163"
         transform="translate(119.5001,187.9643)"><path
           d="M 0,0 C 0.001,-0.668 0.543,-1.209 1.211,-1.208 1.88,-1.207 2.42,-0.664 2.419,0.004 2.418,0.672 1.876,1.213 1.208,1.212 0.539,1.211 -0.001,0.668 0,0"
           style="fill:#24265d;fill-opacity:1;fill-rule:nonzero;stroke:none"
           id="path165" /></g><g
         id="g167"
         transform="translate(119.5001,187.9643)"><path
           d="M 0,0 C 0.001,-0.668 0.543,-1.209 1.211,-1.208 1.88,-1.207 2.42,-0.664 2.419,0.004 2.418,0.672 1.876,1.213 1.208,1.212 0.539,1.211 -0.001,0.668 0,0 Z"
           style="fill:none;stroke:#2c378a;stroke-width:0.558;stroke-linecap:butt;stroke-linejoin:miter;stroke-miterlimit:10;stroke-dasharray:none;stroke-opacity:1"
           id="path169" /></g><g
         id="g171"
         transform="translate(120.2755,189.1752)"><path
           d="M 0,0 -1.971,11.426"
           style="fill:#ffffff;fill-opacity:1;fill-rule:nonzero;stroke:#2c378a;stroke-width:0.847;stroke-linecap:round;stroke-linejoin:round;stroke-miterlimit:10;stroke-dasharray:none;stroke-opacity:1"
           id="path173" /></g><g
         id="g175"
         transform="translate(117.4855,201.1332)"><path
           d="m 0,0 c 0.001,-0.472 0.384,-0.854 0.855,-0.853 0.472,0 0.854,0.384 0.853,0.856 C 1.707,0.475 1.324,0.855 0.853,0.855 0.381,0.854 -0.001,0.472 0,0"
           style="fill:#005446;fill-opacity:1;fill-rule:nonzero;stroke:none"
           id="path177" /></g><g
         id="g179"
         transform="translate(123.0343,185.2436)"><path
           d="m 0,0 -1.566,-0.002 -0.008,5.336 1.565,0.003 z"
           style="fill:#24265d;fill-opacity:1;fill-rule:nonzero;stroke:none"
           id="path181" /></g><g
         id="g183"
         transform="translate(143.1857,188.0004)"><path
           d="m 0,0 c 0.001,-0.668 -0.54,-1.211 -1.208,-1.212 -0.668,-0.001 -1.211,0.54 -1.212,1.208 -10e-4,0.669 0.54,1.211 1.208,1.212 C -0.544,1.209 -0.001,0.668 0,0"
           style="fill:#24265d;fill-opacity:1;fill-rule:nonzero;stroke:none"
           id="path185" /></g><g
         id="g187"
         transform="translate(143.1857,188.0004)"><path
           d="m 0,0 c 0.001,-0.668 -0.54,-1.211 -1.208,-1.212 -0.668,-0.001 -1.211,0.54 -1.212,1.208 -10e-4,0.669 0.54,1.211 1.208,1.212 C -0.544,1.209 -0.001,0.668 0,0 Z"
           style="fill:none;stroke:#2c378a;stroke-width:0.558;stroke-linecap:butt;stroke-linejoin:miter;stroke-miterlimit:10;stroke-dasharray:none;stroke-opacity:1"
           id="path189" /></g><g
         id="g191"
         transform="translate(142.3722,188.9594)"><path
           d="M 0,0 2.163,11.506"
           style="fill:#ffffff;fill-opacity:1;fill-rule:nonzero;stroke:#2c378a;stroke-width:0.847;stroke-linecap:round;stroke-linejoin:round;stroke-miterlimit:10;stroke-dasharray:none;stroke-opacity:1"
           id="path193" /></g><g
         id="g195"
         transform="translate(145.4386,200.8383)"><path
           d="m 0,0 c -0.087,-0.464 -0.534,-0.769 -0.997,-0.682 -0.464,0.087 -0.769,0.534 -0.682,0.997 0.087,0.464 0.533,0.769 0.997,0.682 C -0.218,0.91 0.087,0.463 0,0"
           style="fill:#005446;fill-opacity:1;fill-rule:nonzero;stroke:none"
           id="path197" /></g><g
         id="g199"
         transform="translate(139.6593,185.269)"><path
           d="M 0,0 1.566,0.002 1.559,5.339 -0.008,5.337 Z"
           style="fill:#24265d;fill-opacity:1;fill-rule:nonzero;stroke:none"
           id="path201" /></g><g
         id="g203"
         transform="translate(108.1476,170.7719)"><path
           d="M 0,0 C 0,0 -1.515,-7.533 -3.423,-25.228"
           style="fill:none;stroke:#ffffff;stroke-width:4.426;stroke-linecap:butt;stroke-linejoin:round;stroke-miterlimit:10;stroke-dasharray:none;stroke-opacity:1"
           id="path205" /></g><g
         id="g207"
         transform="translate(108.1476,170.7719)"><path
           d="M 0,0 C 0,0 -0.032,-0.157 -0.092,-0.479"
           style="fill:none;stroke:#f9de46;stroke-width:4.426;stroke-linecap:butt;stroke-linejoin:round;stroke-miterlimit:4;stroke-dasharray:none;stroke-opacity:1"
           id="path209" /></g><g
         id="g211"
         transform="translate(107.8839,169.3324)"><path
           d="M 0,0 C -0.501,-2.864 -1.665,-10.12 -3.052,-22.801"
           style="fill:none;stroke:#f9de46;stroke-width:4.426;stroke-linecap:butt;stroke-linejoin:round;stroke-miterlimit:4;stroke-dasharray:0.979, 0.979;stroke-dashoffset:0;stroke-opacity:1"
           id="path213" /></g><g
         id="g215"
         transform="translate(104.7775,146.0356)"><path
           d="M 0,0 C -0.018,-0.163 -0.035,-0.326 -0.053,-0.491"
           style="fill:none;stroke:#f9de46;stroke-width:4.426;stroke-linecap:butt;stroke-linejoin:round;stroke-miterlimit:4;stroke-dasharray:none;stroke-opacity:1"
           id="path217" /></g><g
         id="g219"
         transform="translate(113.1505,175.3734)"><path
           d="M 0,0 C -0.72,1.806 -2.397,2.938 -4.216,3.058 -3.551,-0.197 -5.5,-3.876 -8.434,-4.72 -7.146,-6.445 -4.821,-7.169 -2.726,-6.335 -0.224,-5.338 0.996,-2.502 0,0"
           style="fill:#24265d;fill-opacity:1;fill-rule:nonzero;stroke:none"
           id="path221" /></g><g
         id="g223"
         transform="translate(160.4708,175.7338)"><path
           d="m 0,0 c 0.996,-2.502 -0.224,-5.339 -2.726,-6.335 -2.502,-0.997 -5.338,0.224 -6.335,2.726 -0.997,2.502 0.224,5.338 2.726,6.335 C -3.833,3.722 -0.997,2.502 0,0"
           style="fill:#f14624;fill-opacity:1;fill-rule:nonzero;stroke:none"
           id="path225" /></g><g
         id="g227"
         transform="translate(139.3683,197.9555)"><path
           d="m 0,0 -16.02,-0.026 -0.402,-16.115 c 0.001,-0.928 0.473,-0.969 1.054,-0.968 l 14.775,0.022 c 0.581,0.001 1.052,0.043 1.051,0.972 z"
           style="fill:#f9de46;fill-opacity:1;fill-rule:nonzero;stroke:none"
           id="path229" /></g><g
         id="g231"
         transform="translate(138.3478,186.0453)"><path
           d="m 0,0 -13.984,-0.021 0.413,10.168 13.124,0.022 z"
           style="fill:#24265d;fill-opacity:1;fill-rule:nonzero;stroke:none"
           id="path233" /></g><g
         id="g235"
         transform="translate(137.8224,184.3344)"><path
           d="M 0,0 0.006,-3.665"
           style="fill:#ffffff;fill-opacity:1;fill-rule:nonzero;stroke:#2c378a;stroke-width:0.558;stroke-linecap:butt;stroke-linejoin:miter;stroke-miterlimit:10;stroke-dasharray:none;stroke-opacity:1"
           id="path237" /></g><g
         id="g239"
         transform="translate(136.4279,184.3324)"><path
           d="M 0,0 0.006,-3.665"
           style="fill:#ffffff;fill-opacity:1;fill-rule:nonzero;stroke:#2c378a;stroke-width:0.558;stroke-linecap:butt;stroke-linejoin:miter;stroke-miterlimit:10;stroke-dasharray:none;stroke-opacity:1"
           id="path241" /></g><g
         id="g243"
         transform="translate(135.0333,184.3305)"><path
           d="M 0,0 0.005,-3.665"
           style="fill:#ffffff;fill-opacity:1;fill-rule:nonzero;stroke:#2c378a;stroke-width:0.558;stroke-linecap:butt;stroke-linejoin:miter;stroke-miterlimit:10;stroke-dasharray:none;stroke-opacity:1"
           id="path245" /></g><g
         id="g247"
         transform="translate(133.6378,184.3285)"><path
           d="M 0,0 0.006,-3.665"
           style="fill:#ffffff;fill-opacity:1;fill-rule:nonzero;stroke:#2c378a;stroke-width:0.558;stroke-linecap:butt;stroke-linejoin:miter;stroke-miterlimit:10;stroke-dasharray:none;stroke-opacity:1"
           id="path249" /></g><g
         id="g251"
         transform="translate(125.6496,184.3236)"><path
           d="M 0,0 C 0.001,-0.354 -0.285,-0.641 -0.639,-0.642 -0.993,-0.643 -1.28,-0.355 -1.28,-0.002 -1.281,0.352 -0.995,0.639 -0.641,0.64 -0.287,0.64 0,0.354 0,0"
           style="fill:#24265d;fill-opacity:1;fill-rule:nonzero;stroke:none"
           id="path253" /></g><g
         id="g255"
         transform="translate(112.1896,179.0258)"><path
           d="m 0,0 h 40.848 c 0.353,0 0.648,-0.273 0.674,-0.626 l 2.018,-27.023 c 0.029,-0.393 -0.281,-0.728 -0.675,-0.728 H -2.018 c -0.393,0 -0.704,0.335 -0.674,0.728 l 2.017,27.023 C -0.648,-0.273 -0.354,0 0,0"
           style="fill:#ffffff;fill-opacity:1;fill-rule:nonzero;stroke:none"
           id="path257" /></g><g
         id="g259"
         transform="translate(112.1896,179.0258)"><path
           d="m 0,0 h 40.848 c 0.353,0 0.648,-0.273 0.674,-0.626 l 2.018,-27.023 c 0.029,-0.393 -0.281,-0.728 -0.675,-0.728 H -2.018 c -0.393,0 -0.704,0.335 -0.674,0.728 l 2.017,27.023 C -0.648,-0.273 -0.354,0 0,0 Z"
           style="fill:none;stroke:#ffffff;stroke-width:0.376;stroke-linecap:butt;stroke-linejoin:miter;stroke-miterlimit:10;stroke-dasharray:none;stroke-opacity:1"
           id="path261" /></g><g
         id="g263"
         transform="translate(144.6759,179.0766)"><path
           d="m 0,0 v -18.004 c 0,-1.804 -0.897,-3.49 -2.395,-4.497 -1.496,-1.007 -2.393,-2.692 -2.393,-4.496 v -1.683"
           style="fill:#ffffff;fill-opacity:1;fill-rule:nonzero;stroke:#2c378a;stroke-width:0.847;stroke-linecap:butt;stroke-linejoin:round;stroke-miterlimit:10;stroke-dasharray:none;stroke-opacity:1"
           id="path265" /></g><g
         id="g267"
         transform="translate(150.5744,160.9506)"><path
           d="m 0,0 h -14.449 c -0.183,0 -0.332,0.148 -0.332,0.331 v 13.04 c 0,0.183 0.149,0.331 0.332,0.331 H 0 c 0.183,0 0.331,-0.148 0.331,-0.331 V 0.331 C 0.331,0.148 0.183,0 0,0"
           style="fill:#f9de46;fill-opacity:1;fill-rule:nonzero;stroke:none"
           id="path269" /></g><g
         id="g271"
         transform="translate(150.5744,160.9506)"><path
           d="m 0,0 h -14.449 c -0.183,0 -0.332,0.148 -0.332,0.331 v 13.04 c 0,0.183 0.149,0.331 0.332,0.331 H 0 c 0.183,0 0.331,-0.148 0.331,-0.331 V 0.331 C 0.331,0.148 0.183,0 0,0 Z"
           style="fill:none;stroke:#f9de46;stroke-width:0.953;stroke-linecap:butt;stroke-linejoin:miter;stroke-miterlimit:10;stroke-dasharray:none;stroke-opacity:1"
           id="path273" /></g><g
         id="g275"
         transform="translate(136.4435,168.1283)"><path
           d="M 0,0 H 2.375 L 4.119,-1.744"
           style="fill:none;stroke:#ffffff;stroke-width:0.847;stroke-linecap:butt;stroke-linejoin:miter;stroke-miterlimit:10;stroke-dasharray:none;stroke-opacity:1"
           id="path277" /></g><g
         id="g279"
         transform="translate(141.756,166.2016)"><path
           d="m 0,0 c 0,-0.526 -0.426,-0.953 -0.952,-0.953 -0.527,0 -0.952,0.427 -0.952,0.953 0,0.525 0.425,0.952 0.952,0.952 C -0.426,0.952 0,0.525 0,0"
           style="fill:#ffffff;fill-opacity:1;fill-rule:nonzero;stroke:none"
           id="path281" /></g><g
         id="g283"
         transform="translate(140.8292,172.3764)"><path
           d="m 0,0 c 0,-0.442 -0.359,-0.801 -0.802,-0.801 -0.442,0 -0.802,0.359 -0.802,0.801 0,0.443 0.36,0.802 0.802,0.802 C -0.359,0.802 0,0.443 0,0"
           style="fill:#ffffff;fill-opacity:1;fill-rule:nonzero;stroke:none"
           id="path285" /></g><g
         id="g287"
         transform="translate(138.3683,172.3764)"><path
           d="m 0,0 c 0,-0.442 -0.358,-0.801 -0.801,-0.801 -0.442,0 -0.802,0.359 -0.802,0.801 0,0.443 0.36,0.802 0.802,0.802 C -0.358,0.802 0,0.443 0,0"
           style="fill:#ffffff;fill-opacity:1;fill-rule:nonzero;stroke:none"
           id="path289" /></g><g
         id="g291"
         transform="translate(149.3517,173.4203)"><path
           d="M 0,0 V -2.209"
           style="fill:none;stroke:#ffffff;stroke-width:0.847;stroke-linecap:butt;stroke-linejoin:miter;stroke-miterlimit:10;stroke-dasharray:none;stroke-opacity:1"
           id="path293" /></g><g
         id="g295"
         transform="translate(147.6564,173.4203)"><path
           d="M 0,0 V -2.209"
           style="fill:none;stroke:#ffffff;stroke-width:0.847;stroke-linecap:butt;stroke-linejoin:miter;stroke-miterlimit:10;stroke-dasharray:none;stroke-opacity:1"
           id="path297" /></g><g
         id="g299"
         transform="translate(145.9611,173.4203)"><path
           d="M 0,0 V -2.209"
           style="fill:none;stroke:#ffffff;stroke-width:0.847;stroke-linecap:butt;stroke-linejoin:miter;stroke-miterlimit:10;stroke-dasharray:none;stroke-opacity:1"
           id="path301" /></g><g
         id="g303"
         transform="translate(130.2814,179.2865)"><path
           d="m 0,0 v -7.531 c 0,-3.24 -1.639,-6.261 -4.355,-8.028 l -3.895,-2.532 c -2.716,-1.766 -4.354,-4.787 -4.354,-8.028 v -2.519"
           style="fill:#ffffff;fill-opacity:1;fill-rule:nonzero;stroke:#2c378a;stroke-width:0.847;stroke-linecap:butt;stroke-linejoin:round;stroke-miterlimit:10;stroke-dasharray:none;stroke-opacity:1"
           id="path305" /></g><g
         id="g307"
         transform="translate(137.2423,152.9398)"><path
           d="m 0,0 c 0,-0.365 -0.296,-0.661 -0.661,-0.661 -0.366,0 -0.662,0.296 -0.662,0.661 0,0.365 0.296,0.661 0.662,0.661 C -0.296,0.661 0,0.365 0,0"
           style="fill:#24265d;fill-opacity:1;fill-rule:nonzero;stroke:none"
           id="path309" /></g><g
         id="g311"
         transform="translate(143.9337,152.9398)"><path
           d="m 0,0 c 0,-0.365 -0.297,-0.661 -0.662,-0.661 -0.365,0 -0.661,0.296 -0.661,0.661 0,0.365 0.296,0.661 0.661,0.661 C -0.297,0.661 0,0.365 0,0"
           style="fill:#24265d;fill-opacity:1;fill-rule:nonzero;stroke:none"
           id="path313" /></g><g
         id="g315"
         transform="translate(143.4113,177.0336)"><path
           d="m 0,0 c 0,-0.365 -0.296,-0.662 -0.661,-0.662 -0.365,0 -0.662,0.297 -0.662,0.662 0,0.365 0.297,0.661 0.662,0.661 C -0.296,0.661 0,0.365 0,0"
           style="fill:#24265d;fill-opacity:1;fill-rule:nonzero;stroke:none"
           id="path317" /></g><g
         id="g319"
         transform="translate(114.3292,177.0336)"><path
           d="m 0,0 c 0,-0.365 -0.296,-0.662 -0.661,-0.662 -0.365,0 -0.661,0.297 -0.661,0.662 0,0.365 0.296,0.661 0.661,0.661 C -0.296,0.661 0,0.365 0,0"
           style="fill:#24265d;fill-opacity:1;fill-rule:nonzero;stroke:none"
           id="path321" /></g><g
         id="g323"
         transform="translate(163.8175,129.4457)"><path
           d="m 0,0 c -0.459,0.336 -3.606,0.504 -4.224,0.574 -1.35,0.154 -2.701,0.35 -4.054,0.474 -1.361,0.124 -2.717,0.36 -4.083,0.459 -0.707,-2.965 -0.621,-6.411 -0.543,-9.444 0.033,-1.304 0.096,-2.628 0.202,-3.93 0.066,-0.822 0.404,-1.745 0.337,-2.552 0.847,-0.212 1.906,-0.209 2.782,-0.311 0.932,-0.108 1.853,-0.052 2.772,-0.132 0.785,-0.069 2.612,-2.125 3.202,-1.503 0.405,0.427 0.484,2.914 0.699,3.445 0.388,0.956 0.343,1.909 0.556,2.913 0.393,1.849 0.832,3.682 1.231,5.526 C -0.853,-3.232 0,0 0,0"
           style="fill:#24265d;fill-opacity:1;fill-rule:nonzero;stroke:none"
           id="path325" /></g><g
         id="g327"
         transform="translate(163.8175,129.4457)"><path
           d="m 0,0 c -0.459,0.336 -3.606,0.504 -4.224,0.574 -1.35,0.154 -2.701,0.35 -4.054,0.474 -1.361,0.124 -2.717,0.36 -4.083,0.459 -0.707,-2.965 -0.621,-6.411 -0.543,-9.444 0.033,-1.304 0.096,-2.628 0.202,-3.93 0.066,-0.822 0.404,-1.745 0.337,-2.552 0.847,-0.212 1.906,-0.209 2.782,-0.311 0.932,-0.108 1.853,-0.052 2.772,-0.132 0.785,-0.069 2.612,-2.125 3.202,-1.503 0.405,0.427 0.484,2.914 0.699,3.445 0.388,0.956 0.343,1.909 0.556,2.913 0.393,1.849 0.832,3.682 1.231,5.526 C -0.853,-3.232 0,0 0,0 Z"
           style="fill:none;stroke:#24265d;stroke-width:0.984;stroke-linecap:round;stroke-linejoin:round;stroke-miterlimit:10;stroke-dasharray:none;stroke-opacity:1"
           id="path329" /></g><g
         id="g331"
         transform="translate(104.9523,147.1342)"><path
           d="m 0,0 c 1.516,-0.182 2.597,-1.556 2.416,-3.071 -0.181,-1.515 -1.555,-2.597 -3.07,-2.416 -1.515,0.18 -2.597,1.555 -2.416,3.07 C -2.89,-0.901 -1.515,0.181 0,0"
           style="fill:#24265d;fill-opacity:1;fill-rule:nonzero;stroke:none"
           id="path333" /></g><g
         id="g335"
         transform="translate(104.7775,145.6693)"><path
           d="m 0,0 c 0.706,-0.085 1.211,-0.726 1.126,-1.432 -0.084,-0.706 -0.725,-1.21 -1.431,-1.126 -0.706,0.084 -1.21,0.725 -1.126,1.431 C -1.347,-0.42 -0.706,0.084 0,0"
           style="fill:#fab759;fill-opacity:1;fill-rule:nonzero;stroke:none"
           id="path337" /></g><g
         id="g339"
         transform="translate(91.2199,135.933)"><path
           d="m 0,0 v 0 c -1.472,-0.505 -2.265,-2.098 -1.78,-3.576 l 3.006,-9.167 5.379,1.843 -2.982,9.095 C 3.129,-0.299 1.5,0.513 0,0"
           style="fill:#24265d;fill-opacity:1;fill-rule:nonzero;stroke:none"
           id="path341" /></g><g
         id="g343"
         transform="translate(91.6124,124.7494)"><path
           d="M 0,0 5.915,2.025"
           style="fill:none;stroke:#ffffff;stroke-width:0.984;stroke-linecap:round;stroke-linejoin:miter;stroke-miterlimit:10;stroke-dasharray:none;stroke-opacity:1"
           id="path345" /></g><g
         id="g347"
         transform="translate(90.9747,126.6108)"><path
           d="M 0,0 5.914,2.026"
           style="fill:none;stroke:#ffffff;stroke-width:0.984;stroke-linecap:round;stroke-linejoin:miter;stroke-miterlimit:10;stroke-dasharray:none;stroke-opacity:1"
           id="path349" /></g><g
         id="g351"
         transform="translate(90.3371,128.4731)"><path
           d="M 0,0 5.914,2.026"
           style="fill:none;stroke:#ffffff;stroke-width:0.984;stroke-linecap:round;stroke-linejoin:miter;stroke-miterlimit:10;stroke-dasharray:none;stroke-opacity:1"
           id="path353" /></g><g
         id="g355"
         transform="translate(90.9894,132.7328)"><path
           d="m 0,0 c 0.23,-0.672 0.962,-1.03 1.633,-0.8 0.672,0.231 1.03,0.961 0.8,1.633 C 2.202,1.505 1.472,1.862 0.8,1.633 0.128,1.402 -0.229,0.671 0,0"
           style="fill:#fab759;fill-opacity:1;fill-rule:nonzero;stroke:none"
           id="path357" /></g><g
         id="g359"
         transform="translate(109.0978,107.1205)"><path
           d="m 0,0 c -0.701,1.168 -1.929,1.898 -2.971,2.76 -0.783,0.647 -2.21,1.322 -2.383,2.566 0,0 -0.43,2.96 -0.65,4.246 -0.513,2.991 -1.098,6.387 -2.367,9.158 -1.32,-0.362 -2.606,-0.856 -3.916,-1.243 -1.304,-0.383 -2.59,-0.839 -3.885,-1.252 -0.592,-0.188 -3.646,-0.964 -4.032,-1.382 0,0 1.464,-3.005 1.973,-4.179 0.749,-1.731 1.535,-3.445 2.279,-5.181 0.404,-0.943 0.85,-1.7 1.416,-2.562 0.194,-0.296 0.444,-0.886 0.72,-1.375 -0.762,-4.272 -0.401,-9.476 3.135,-12.523 0.381,-0.327 1.144,-1.028 1.534,-0.676 0.509,0.462 0.509,0.462 -0.381,2.254 -0.653,1.315 -1.118,2.817 -1.194,4.3 0.018,-0.033 0.034,-0.069 0.052,-0.102 0.807,-1.53 1.53,-3.005 2.523,-4.432 0.442,-0.638 1.43,-1.912 2.345,-1.664 1.308,0.355 -0.398,2.579 -0.672,3.376 -0.381,1.115 -0.544,2.247 -0.664,3.382 0.134,-0.266 0.268,-0.532 0.411,-0.787 0.778,-1.378 4.019,-5.06 6.022,-3.883 1.409,0.828 -0.935,3 -1.506,3.822 -0.648,0.933 -1.184,2.081 -1.56,3.148 -0.178,0.501 -0.25,1.027 -0.347,1.544 0.981,-0.448 1.876,-0.696 2.577,-1.705 0.504,-0.726 1.069,-2.418 2.246,-1.558 C 1.841,-3.119 0.516,-0.858 0,0"
           style="fill:#f14624;fill-opacity:1;fill-rule:nonzero;stroke:none"
           id="path361" /></g><g
         id="g363"
         transform="translate(94.6408,121.311)"><path
           d="m 0,0 c -0.154,0.577 -0.945,1.011 -1.432,0.68 -0.693,-0.471 -0.178,-1.431 0.392,-1.729 -0.683,-0.312 -1.661,-0.839 -1.226,-1.837 0.34,-0.78 1.26,-0.707 1.812,-0.277 -0.046,-0.789 0.957,-1.561 1.758,-1.377 1.031,0.237 0.844,1.292 0.491,1.98 1.13,-0.78 2.377,2.065 0.172,1.87 0.836,0.362 0.07,1.838 -0.756,1.876 C 0.58,1.213 0.009,0.527 0,0"
           style="fill:#ffffff;fill-opacity:1;fill-rule:nonzero;stroke:#2c378a;stroke-width:0.65;stroke-linecap:round;stroke-linejoin:round;stroke-miterlimit:10;stroke-dasharray:none;stroke-opacity:1"
           id="path365" /></g><g
         id="g367"
         transform="translate(96.1447,119.6205)"><path
           d="m 0,0 c 0,-0.606 -0.492,-1.099 -1.099,-1.099 -0.606,0 -1.097,0.493 -1.097,1.099 0,0.606 0.491,1.098 1.097,1.098 C -0.492,1.098 0,0.606 0,0"
           style="fill:#24265d;fill-opacity:1;fill-rule:nonzero;stroke:none"
           id="path369" /></g><g
         id="g371"
         transform="translate(99.1662,115.2719)"><path
           d="m 0,0 c -0.154,0.577 -0.945,1.011 -1.432,0.68 -0.693,-0.471 -0.178,-1.431 0.392,-1.73 -0.683,-0.311 -1.661,-0.839 -1.226,-1.837 0.34,-0.779 1.26,-0.706 1.813,-0.276 -0.047,-0.789 0.956,-1.561 1.757,-1.377 1.031,0.236 0.844,1.291 0.491,1.98 1.13,-0.78 2.377,2.065 0.172,1.87 0.836,0.362 0.07,1.838 -0.756,1.875 C 0.58,1.213 0.01,0.527 0,0"
           style="fill:#ffffff;fill-opacity:1;fill-rule:nonzero;stroke:#2c378a;stroke-width:0.65;stroke-linecap:round;stroke-linejoin:round;stroke-miterlimit:10;stroke-dasharray:none;stroke-opacity:1"
           id="path373" /></g><g
         id="g375"
         transform="translate(100.6701,113.5815)"><path
           d="m 0,0 c 0,-0.606 -0.492,-1.099 -1.099,-1.099 -0.606,0 -1.097,0.493 -1.097,1.099 0,0.606 0.491,1.098 1.097,1.098 C -0.492,1.098 0,0.606 0,0"
           style="fill:#24265d;fill-opacity:1;fill-rule:nonzero;stroke:none"
           id="path377" /></g><g
         id="g379"
         transform="translate(97.3663,105.9653)"><path
           d="m 0,0 c -0.585,-0.12 -1.064,-0.884 -0.764,-1.39 0.429,-0.719 1.418,-0.262 1.75,0.289 0.271,-0.7 0.739,-1.708 1.761,-1.333 0.799,0.293 0.78,1.216 0.384,1.792 C 3.916,-0.734 4.746,0.221 4.61,1.031 4.435,2.074 3.371,1.951 2.662,1.64 3.509,2.721 0.743,4.135 0.807,1.922 0.495,2.778 -1.024,2.102 -1.11,1.279 -1.176,0.65 -0.525,0.04 0,0"
           style="fill:#ffffff;fill-opacity:1;fill-rule:nonzero;stroke:#2c378a;stroke-width:0.65;stroke-linecap:round;stroke-linejoin:round;stroke-miterlimit:10;stroke-dasharray:none;stroke-opacity:1"
           id="path381" /></g><g
         id="g383"
         transform="translate(99.1437,107.3656)"><path
           d="M 0,0 C 0.605,-0.036 1.067,-0.557 1.031,-1.162 0.995,-1.768 0.476,-2.229 -0.13,-2.192 -0.735,-2.156 -1.197,-1.637 -1.161,-1.031 -1.125,-0.426 -0.605,0.036 0,0"
           style="fill:#24265d;fill-opacity:1;fill-rule:nonzero;stroke:none"
           id="path385" /></g><g
         id="g387"
         transform="translate(102.3654,118.9584)"><path
           d="m 0,0 c -0.905,-0.512 -2.326,1.007 -1.524,1.718 -0.711,0.277 -1.236,0.801 -1.1,1.645 0.105,0.649 1.014,1.079 1.64,1.069"
           style="fill:#ffffff;fill-opacity:1;fill-rule:nonzero;stroke:#2c378a;stroke-width:0.65;stroke-linecap:round;stroke-linejoin:round;stroke-miterlimit:10;stroke-dasharray:none;stroke-opacity:1"
           id="path389" /></g><g
         id="g391"
         transform="translate(104.2121,111.0297)"><path
           d="m 0,0 c -0.464,-0.31 -0.947,-1.545 -0.572,-2.01 0.312,-0.388 1.185,-0.472 1.485,-0.151 0.094,-1.001 2.081,-0.382 1.943,0.044"
           style="fill:#ffffff;fill-opacity:1;fill-rule:nonzero;stroke:#2c378a;stroke-width:0.65;stroke-linecap:round;stroke-linejoin:round;stroke-miterlimit:10;stroke-dasharray:none;stroke-opacity:1"
           id="path393" /></g><g
         id="g395"
         transform="translate(104.8429,99.6)"><path
           d="M 0,0 C 0.587,0.422 0.58,1.572 -0.105,1.884 -0.581,2.101 -1.167,2.078 -1.408,1.603"
           style="fill:#ffffff;fill-opacity:1;fill-rule:nonzero;stroke:#2c378a;stroke-width:0.65;stroke-linecap:round;stroke-linejoin:round;stroke-miterlimit:10;stroke-dasharray:none;stroke-opacity:1"
           id="path397" /></g><g
         id="g399"
         transform="translate(96.8292,98.9203)"><path
           d="M 0,0 C 0.488,0.117 0.835,0.9 0.671,1.37 0.462,1.964 -0.201,1.935 -0.661,2.087 0.132,2.805 -0.389,3.941 -1.359,3.934"
           style="fill:#ffffff;fill-opacity:1;fill-rule:nonzero;stroke:#2c378a;stroke-width:0.65;stroke-linecap:round;stroke-linejoin:round;stroke-miterlimit:10;stroke-dasharray:none;stroke-opacity:1"
           id="path401" /></g><g
         id="g403"
         transform="translate(93.8673,112.0805)"><path
           d="M 0,0 C 0.71,-0.314 1.101,1.063 1.068,1.559 1.018,2.343 0.531,2.477 -0.187,2.581 -0.021,3.077 0.003,3.548 -0.534,3.871 -0.75,4.002 -1.202,4.12 -1.892,3.824"
           style="fill:#ffffff;fill-opacity:1;fill-rule:nonzero;stroke:#2c378a;stroke-width:0.65;stroke-linecap:round;stroke-linejoin:round;stroke-miterlimit:10;stroke-dasharray:none;stroke-opacity:1"
           id="path405" /></g><g
         id="g407"
         transform="translate(92.9445,113.0522)"><path
           d="M 0,0 C 0.477,0.138 0.699,0.842 0.438,1.249 0.277,1.499 0.006,1.565 -0.27,1.589 -0.472,1.606 -0.733,1.665 -0.68,1.554"
           style="fill:#24265d;fill-opacity:1;fill-rule:nonzero;stroke:none"
           id="path409" /></g><g
         id="g411"
         transform="translate(128.1857,189.5697)"><path
           d="m 0,0 c 1.168,-1.251 2.855,-1.281 4.359,-0.769 1.314,0.448 1.58,1.306 2.414,2.295"
           style="fill:none;stroke:#ffffff;stroke-width:0.558;stroke-linecap:round;stroke-linejoin:round;stroke-miterlimit:10;stroke-dasharray:none;stroke-opacity:1"
           id="path413" /></g><g
         id="g415"
         transform="translate(133.7716,193.7494)"><path
           d="M 0,0 C 0.12,-0.22 0.176,-0.42 0.338,-0.529 0.289,-0.304 0.163,-0.271 0.045,-0.096"
           style="fill:none;stroke:#ffffff;stroke-width:0.558;stroke-linecap:round;stroke-linejoin:round;stroke-miterlimit:10;stroke-dasharray:none;stroke-opacity:1"
           id="path417" /></g><g
         id="g419"
         transform="translate(127.5333,191.7943)"><path
           d="m 0,0 c -0.015,-0.108 -0.12,-0.24 -0.223,-0.333 0.12,-0.063 0.195,-0.123 0.342,-0.15 -0.125,0.224 -0.259,0.455 -0.377,0.579 0.098,-0.132 0.422,-0.278 0.303,-0.192"
           style="fill:none;stroke:#ffffff;stroke-width:0.558;stroke-linecap:round;stroke-linejoin:round;stroke-miterlimit:10;stroke-dasharray:none;stroke-opacity:1"
           id="path421" /></g><g
         id="g423"
         transform="translate(146.3185,81.2758)"><path
           d="m 0,0 -1.226,10.943 c -0.077,0.691 -0.66,1.212 -1.354,1.212 h -4.289 c -0.733,0 -1.334,-0.578 -1.362,-1.309 L -8.672,-0.371"
           style="fill:#005446;fill-opacity:1;fill-rule:nonzero;stroke:none"
           id="path425" /></g><g
         id="g427"
         transform="translate(147.6525,79.3383)"><path
           d="M 0,0 C -0.654,0.999 -1.393,2.484 -1.996,3.339 L -9.94,2.786 c -0.05,-1.307 -0.317,-2.384 0.121,-3.167 0.254,-0.455 0.594,-0.804 0.979,-1.099 0.636,-0.489 4.12,-2.897 5.244,-3.458 0.404,-0.203 0.834,-0.363 1.313,-0.459 0.089,-0.019 0.182,-0.026 0.273,-0.026 l 3.726,0.013 c 0.133,0.001 0.265,0.063 0.326,0.182 C 2.775,-3.775 0.631,-0.965 0,0"
           style="fill:#005446;fill-opacity:1;fill-rule:nonzero;stroke:none"
           id="path429" /></g><g
         id="g431"
         transform="translate(146.2091,81.3197)"><path
           d="M 0,0 H -5.797 C -6.343,0 -6.843,-0.306 -7.091,-0.793 L -8.044,-2.664"
           style="fill:none;stroke:#ffffff;stroke-width:0.65;stroke-linecap:round;stroke-linejoin:round;stroke-miterlimit:10;stroke-dasharray:none;stroke-opacity:1"
           id="path433" /></g><g
         id="g435"
         transform="translate(148.8771,77.599)"><path
           d="M 0,0 H -3.337 C -3.883,0 -4.382,-0.306 -4.63,-0.792 l -0.954,-1.872"
           style="fill:none;stroke:#ffffff;stroke-width:0.65;stroke-linecap:round;stroke-linejoin:round;stroke-miterlimit:10;stroke-dasharray:none;stroke-opacity:1"
           id="path437" /></g><g
         id="g439"
         transform="translate(140.3322,90.7338)"><path
           d="M 0,0 H 4.918"
           style="fill:none;stroke:#ffffff;stroke-width:0.65;stroke-linecap:round;stroke-linejoin:round;stroke-miterlimit:10;stroke-dasharray:none;stroke-opacity:1"
           id="path441" /></g><g
         id="g443"
         transform="translate(126.629,79.3588)"><path
           d="m 0,0 v -0.428 c 0,-0.718 -0.34,-1.391 -0.917,-1.818 -1.648,-1.222 -5.538,-3.17 -6.664,-3.396 -1.509,-0.301 -5.812,0 -5.812,0 v 0.906 l 9.08,3.066 z"
           style="fill:#ffffff;fill-opacity:1;fill-rule:nonzero;stroke:none"
           id="path445" /></g><g
         id="g447"
         transform="translate(117.922,81.2758)"><path
           d="m 0,0 1.226,10.943 c 0.077,0.691 0.661,1.212 1.355,1.212 h 4.288 c 0.733,0 1.334,-0.578 1.362,-1.309 L 8.673,-0.371"
           style="fill:#005446;fill-opacity:1;fill-rule:nonzero;stroke:none"
           id="path449" /></g><g
         id="g451"
         transform="translate(116.589,79.3383)"><path
           d="M 0,0 C 0.653,0.999 1.393,2.484 1.995,3.339 L 9.939,2.786 C 9.989,1.479 10.256,0.402 9.818,-0.381 9.564,-0.836 9.224,-1.185 8.839,-1.48 8.204,-1.969 4.228,-3.885 3.104,-4.446 2.7,-4.648 2.269,-4.809 1.791,-4.905 1.701,-4.924 1.608,-4.932 1.518,-4.931 l -4.71,0.013 c -0.133,0.001 -0.319,0.05 -0.327,0.183 C -3.693,-1.889 -0.632,-0.965 0,0"
           style="fill:#005446;fill-opacity:1;fill-rule:nonzero;stroke:none"
           id="path453" /></g><g
         id="g455"
         transform="translate(118.0314,81.3197)"><path
           d="M 0,0 H 5.797 C 6.344,0 6.843,-0.306 7.091,-0.793 L 8.045,-2.664"
           style="fill:none;stroke:#ffffff;stroke-width:0.65;stroke-linecap:round;stroke-linejoin:round;stroke-miterlimit:10;stroke-dasharray:none;stroke-opacity:1"
           id="path457" /></g><g
         id="g459"
         transform="translate(114.8712,78.0912)"><path
           d="M 0,0 H 3.337 C 3.883,0 4.383,-0.306 4.631,-0.793 L 5.584,-2.664"
           style="fill:none;stroke:#ffffff;stroke-width:0.65;stroke-linecap:round;stroke-linejoin:round;stroke-miterlimit:10;stroke-dasharray:none;stroke-opacity:1"
           id="path461" /></g><g
         id="g463"
         transform="translate(123.8771,90.7338)"><path
           d="M 0,0 H -4.886"
           style="fill:none;stroke:#ffffff;stroke-width:0.65;stroke-linecap:round;stroke-linejoin:round;stroke-miterlimit:10;stroke-dasharray:none;stroke-opacity:1"
           id="path465" /></g><g
         id="g467"
         transform="translate(139.3322,119.2895)"><path
           d="M 0,0 H 4.021"
           style="fill:none;stroke:#ffffff;stroke-width:0.65;stroke-linecap:round;stroke-linejoin:round;stroke-miterlimit:10;stroke-dasharray:none;stroke-opacity:1"
           id="path469" /></g><g
         id="g471"
         transform="translate(139.257,120.6684)"><path
           d="M 0,0 4.096,0.098"
           style="fill:none;stroke:#ffffff;stroke-width:0.65;stroke-linecap:round;stroke-linejoin:round;stroke-miterlimit:10;stroke-dasharray:none;stroke-opacity:1"
           id="path473" /></g><g
         id="g475"
         transform="translate(139.257,122.1342)"><path
           d="M 0,0 4.096,0.107"
           style="fill:none;stroke:#ffffff;stroke-width:0.65;stroke-linecap:round;stroke-linejoin:round;stroke-miterlimit:10;stroke-dasharray:none;stroke-opacity:1"
           id="path477" /></g><g
         id="g479"
         transform="translate(125.2628,119.3276)"><path
           d="M 0,0 H -4.021"
           style="fill:none;stroke:#ffffff;stroke-width:0.65;stroke-linecap:round;stroke-linejoin:round;stroke-miterlimit:10;stroke-dasharray:none;stroke-opacity:1"
           id="path481" /></g><g
         id="g483"
         transform="translate(125.338,120.7065)"><path
           d="M 0,0 -4.096,0.097"
           style="fill:none;stroke:#ffffff;stroke-width:0.65;stroke-linecap:round;stroke-linejoin:round;stroke-miterlimit:10;stroke-dasharray:none;stroke-opacity:1"
           id="path485" /></g><g
         id="g487"
         transform="translate(125.338,122.1713)"><path
           d="M 0,0 -4.096,0.108"
           style="fill:none;stroke:#ffffff;stroke-width:0.65;stroke-linecap:round;stroke-linejoin:round;stroke-miterlimit:10;stroke-dasharray:none;stroke-opacity:1"
           id="path489" /></g><g
         id="g491"
         transform="translate(150.4962,115.9428)"><path
           d="M 0,0 10.562,-1.764"
           style="fill:none;stroke:#ffffff;stroke-width:0.65;stroke-linecap:round;stroke-linejoin:round;stroke-miterlimit:10;stroke-dasharray:none;stroke-opacity:1"
           id="path493" /></g><g
         id="g495"
         transform="translate(150.4962,117.4194)"><path
           d="M 0,0 10.86,-1.842"
           style="fill:none;stroke:#ffffff;stroke-width:0.65;stroke-linecap:round;stroke-linejoin:round;stroke-miterlimit:10;stroke-dasharray:none;stroke-opacity:1"
           id="path497" /></g><g
         id="g499"
         transform="translate(150.4962,118.8959)"><path
           d="M 0,0 11.284,-1.7"
           style="fill:none;stroke:#ffffff;stroke-width:0.65;stroke-linecap:round;stroke-linejoin:round;stroke-miterlimit:10;stroke-dasharray:none;stroke-opacity:1"
           id="path501" /></g><g
         id="g503"
         transform="translate(156.0714,135.4291)"><path
           d="M 0,0 4.008,-0.326"
           style="fill:#ffffff;fill-opacity:1;fill-rule:nonzero;stroke:#2c378a;stroke-width:0.847;stroke-linecap:round;stroke-linejoin:round;stroke-miterlimit:10;stroke-dasharray:none;stroke-opacity:1"
           id="path505" /></g><g
         id="g507"
         transform="translate(156.1095,136.81)"><path
           d="M 0,0 4.09,-0.236"
           style="fill:#ffffff;fill-opacity:1;fill-rule:nonzero;stroke:#2c378a;stroke-width:0.847;stroke-linecap:round;stroke-linejoin:round;stroke-miterlimit:10;stroke-dasharray:none;stroke-opacity:1"
           id="path509" /></g><g
         id="g511"
         transform="translate(156.2287,138.2709)"><path
           d="M 0,0 4.091,-0.226"
           style="fill:#ffffff;fill-opacity:1;fill-rule:nonzero;stroke:#2c378a;stroke-width:0.847;stroke-linecap:round;stroke-linejoin:round;stroke-miterlimit:10;stroke-dasharray:none;stroke-opacity:1"
           id="path513" /></g><g
         id="g515"
         transform="translate(155.9669,161.9906)"><path
           d="M 0,0 3.549,0.221"
           style="fill:#ffffff;fill-opacity:1;fill-rule:nonzero;stroke:#2c378a;stroke-width:0.797;stroke-linecap:round;stroke-linejoin:round;stroke-miterlimit:10;stroke-dasharray:none;stroke-opacity:1"
           id="path517" /></g><g
         id="g519"
         transform="translate(155.8156,163.3627)"><path
           d="M 0,0 3.609,0.322"
           style="fill:#ffffff;fill-opacity:1;fill-rule:nonzero;stroke:#2c378a;stroke-width:0.797;stroke-linecap:round;stroke-linejoin:round;stroke-miterlimit:10;stroke-dasharray:none;stroke-opacity:1"
           id="path521" /></g><g
         id="g523"
         transform="translate(155.7238,164.8256)"><path
           d="M 0,0 3.609,0.332"
           style="fill:#ffffff;fill-opacity:1;fill-rule:nonzero;stroke:#2c378a;stroke-width:0.797;stroke-linecap:round;stroke-linejoin:round;stroke-miterlimit:10;stroke-dasharray:none;stroke-opacity:1"
           id="path525" /></g><g
         id="g527"
         transform="translate(157.8468,128.4643)"><path
           d="m 0,0 c 0,-0.365 -0.297,-0.661 -0.662,-0.661 -0.365,0 -0.661,0.296 -0.661,0.661 0,0.365 0.296,0.662 0.661,0.662 C -0.297,0.662 0,0.365 0,0"
           style="fill:#f14624;fill-opacity:1;fill-rule:nonzero;stroke:none"
           id="path529" /></g><g
         id="g531"
         transform="translate(157.0363,120.4653)"><path
           d="m 0,0 c 0,-0.365 -0.296,-0.661 -0.661,-0.661 -0.365,0 -0.662,0.296 -0.662,0.661 0,0.365 0.297,0.662 0.662,0.662 C -0.296,0.662 0,0.365 0,0"
           style="fill:#f14624;fill-opacity:1;fill-rule:nonzero;stroke:none"
           id="path533" /></g><g
         id="g535"
         transform="translate(151.1691,115.308)"><path
           d="m 0,0 c -0.398,-0.189 -0.706,-0.664 -1.027,-0.971 -0.53,-0.507 -1.054,-0.852 -1.477,-1.463 -0.688,-0.997 -0.644,-1.924 -0.554,-3.101 0.04,-0.525 -0.02,-2.055 0.372,-2.413 0.452,-0.412 1.636,-10e-4 2.218,-0.159 0.323,0.661 0.159,1.899 0.237,2.663 0.071,0.715 0.112,1.095 0.68,1.592 0.802,0.701 1.713,1.264 2.518,1.956 0.301,0.256 0.915,0.916 1.262,0.981"
           style="fill:#24265d;fill-opacity:1;fill-rule:nonzero;stroke:none"
           id="path537" /></g><g
         id="g539"
         transform="translate(150.5402,110.7924)"><path
           d="m 0,0 c 0.49,-0.237 1.042,-0.153 1.573,-0.127 1.007,0.05 1.982,-0.037 2.985,-0.119 1.255,-0.102 2.5,-0.162 3.755,-0.21 0.796,-0.029 1.407,-0.307 1.63,0.538 0.226,0.851 0.205,1.894 0.164,2.769 C 9.015,3.021 7.887,3.297 6.752,3.43 5.493,3.576 4.019,3.474 2.801,3.829"
           style="fill:#24265d;fill-opacity:1;fill-rule:nonzero;stroke:none"
           id="path541" /></g><g
         id="g543"
         transform="translate(154.8292,107.4506)"><path
           d="m 0,0 c 0.039,0.945 0.187,2.285 0.227,3.799 l -2.859,0.286 c 0.03,-1.716 -0.334,-3.395 -0.346,-5.095 -1.129,0.004 -2.346,0.058 -3.418,-0.158 -0.028,-0.521 -0.043,-1.074 0.1,-1.582 0.611,-0.227 1.342,-0.242 1.986,-0.359 0.744,-0.134 1.51,-0.173 2.275,-0.173 1.373,0 2.009,2.611 2.035,3.282"
           style="fill:#24265d;fill-opacity:1;fill-rule:nonzero;stroke:none"
           id="path545" /></g><g
         id="g547"
         transform="translate(158.5988,110.7358)"><path
           d="m 0,0 -2.686,0.343 c -0.341,-1.448 -0.574,-5.482 -0.574,-5.947 -0.297,-0.36 -1.313,-1.332 -1.571,-1.637 0.399,-0.6 0.651,-0.966 1.148,-1 0.429,-0.03 1.082,0.392 1.444,0.618 0.343,0.215 0.804,0.508 1.106,0.792 C -0.138,-5.894 -0.138,-0.013 0,0"
           style="fill:#24265d;fill-opacity:1;fill-rule:nonzero;stroke:none"
           id="path549" /></g><g
         id="g551"
         transform="translate(160.5079,113.3305)"><path
           d="m 0,0 -1.647,-2.047 c -0.077,-1.12 0.042,-3.979 0.088,-5.331 0.015,-0.416 -0.128,-0.818 -0.4,-1.134 -0.378,-0.44 -0.756,-0.904 -1.02,-1.364 1.681,-1.708 3.387,0.702 3.428,0.738 0.5,0.45 0.579,1.471 0.675,1.826 C 1.406,-6.271 1.148,-3.146 0,0"
           style="fill:#24265d;fill-opacity:1;fill-rule:nonzero;stroke:none"
           id="path553" /></g><g
         id="g555"
         transform="translate(102.2677,120.6322)"><path
           d="M 0,0 C -1.108,0.296 -0.608,1.468 -0.275,1.498 -0.097,1.043 -0.025,0.492 0.098,0.024"
           style="fill:#24265d;fill-opacity:1;fill-rule:nonzero;stroke:none"
           id="path557" /></g><g
         id="g559"
         transform="translate(108.9953,173.3002)"><path
           d="M 0,0 C -1.229,-2.128 -3.103,-3.348 -4.186,-2.723 -5.268,-2.098 -5.148,0.135 -3.92,2.263 -2.69,4.392 -0.817,5.61 0.266,4.985 1.348,4.361 1.229,2.129 0,0"
           style="fill:#ffffff;fill-opacity:1;fill-rule:nonzero;stroke:none"
           id="path561" /></g><g
         id="g563"
         transform="translate(108.2169,173.7494)"><path
           d="m 0,0 c -0.741,-1.284 -1.871,-2.02 -2.524,-1.643 -0.653,0.377 -0.581,1.724 0.16,3.008 0.742,1.283 1.872,2.019 2.524,1.642 C 0.813,2.63 0.742,1.284 0,0"
           style="fill:#24265d;fill-opacity:1;fill-rule:nonzero;stroke:none"
           id="path565" /></g><g
         id="g567"
         transform="translate(101.3165,178.392)"><path
           d="M 0,0 -15.871,12.249"
           style="fill:#ffffff;fill-opacity:1;fill-rule:nonzero;stroke:#2c378a;stroke-width:2.951;stroke-linecap:butt;stroke-linejoin:round;stroke-miterlimit:10;stroke-dasharray:none;stroke-opacity:1"
           id="path569" /></g><g
         id="g571"
         transform="translate(104.5451,178.6225)"><path
           d="m 0,0 c -0.021,0.021 -0.047,0.036 -0.074,0.046 l -1.87,0.623 C -2.023,0.695 -2.759,1.303 -2.81,1.236 l -1.729,-2.253 c -0.058,-0.074 0.673,-0.679 0.734,-0.751 l 1.547,-1.789 c 0.017,-0.018 0.036,-0.034 0.058,-0.046 l 3.068,-1.593 c 0.609,0.861 1.201,1.737 1.772,2.635 z"
           style="fill:#24265d;fill-opacity:1;fill-rule:nonzero;stroke:none"
           id="path573" /></g><g
         id="g575"
         transform="translate(107.9025,175.3656)"><path
           d="m 0,0 -0.567,0.551 c 0,0 -1.314,-1.629 -1.922,-2.49 l 0.784,-0.408 c 0.086,-0.045 0.192,-0.019 0.249,0.059 l 1.478,2.032 C 0.079,-0.177 0.07,-0.068 0,0"
           style="fill:#ffffff;fill-opacity:1;fill-rule:nonzero;stroke:none"
           id="path577" /></g><g
         id="g579"
         transform="translate(106.8712,176.3481)"><path
           d="M 0,0 -1.938,-2.673"
           style="fill:#ffffff;fill-opacity:1;fill-rule:nonzero;stroke:#2c378a;stroke-width:0.847;stroke-linecap:butt;stroke-linejoin:round;stroke-miterlimit:10;stroke-dasharray:none;stroke-opacity:1"
           id="path581" /></g><g
         id="g583"
         transform="translate(160.34,163.2973)"><path
           d="M 0,0 2.197,-0.056"
           style="fill:none;stroke:#ffffff;stroke-width:0.79;stroke-linecap:butt;stroke-linejoin:miter;stroke-miterlimit:10;stroke-dasharray:none;stroke-opacity:1"
           id="path585" /></g><g
         id="g587"
         transform="translate(163.5402,160.5678)"><path
           d="M 0,0 -1.825,-1.553"
           style="fill:none;stroke:#ffffff;stroke-width:0.79;stroke-linecap:butt;stroke-linejoin:miter;stroke-miterlimit:10;stroke-dasharray:none;stroke-opacity:1"
           id="path589" /></g><g
         id="g591"
         transform="translate(165.4328,158.518)"><path
           d="M 0,0 -0.774,-2.142"
           style="fill:none;stroke:#ffffff;stroke-width:0.79;stroke-linecap:butt;stroke-linejoin:miter;stroke-miterlimit:10;stroke-dasharray:none;stroke-opacity:1"
           id="path593" /></g><g
         id="g595"
         transform="translate(188.2365,57.393)"><path
           d="M 0,0 C 0.457,0 0.842,0.356 0.842,0.887 0.842,1.41 0.457,1.772 0,1.772 -0.463,1.772 -0.848,1.41 -0.848,0.887 -0.848,0.356 -0.463,0 0,0"
           style="fill:#24265d;fill-opacity:1;fill-rule:nonzero;stroke:none"
           id="path597" /></g><g
         id="g599"
         transform="translate(207.1974,48.4057)"><path
           d="M 0,0 C -0.363,0 -0.619,-0.251 -0.687,-0.625 H 0.551 C 0.54,-0.234 0.3,0 0,0"
           style="fill:#24265d;fill-opacity:1;fill-rule:nonzero;stroke:none"
           id="path601" /></g><g
         id="g603"
         transform="translate(206.7658,53.8129)"><path
           d="M 0,0 C -0.362,0 -0.618,-0.25 -0.686,-0.624 H 0.552 C 0.541,-0.233 0.301,0 0,0"
           style="fill:#24265d;fill-opacity:1;fill-rule:nonzero;stroke:none"
           id="path605" /></g><g
         id="g607"
         transform="translate(209.7345,59.2211)"><path
           d="M 0,0 C -0.363,0 -0.619,-0.25 -0.687,-0.624 H 0.552 C 0.54,-0.234 0.3,0 0,0"
           style="fill:#24265d;fill-opacity:1;fill-rule:nonzero;stroke:none"
           id="path609" /></g><g
         id="g611"
         transform="translate(202.6447,57.3207)"><path
           d="M 0,0 C 0.385,0 0.657,0.412 0.657,0.769 V 0.863 H 0.541 C 0.262,0.863 -0.413,0.819 -0.413,0.39 -0.413,0.179 -0.262,0 0,0"
           style="fill:#24265d;fill-opacity:1;fill-rule:nonzero;stroke:none"
           id="path613" /></g><g
         id="g615"
         transform="translate(197.7247,48.3441)"><path
           d="m 0,0 c -0.401,0 -0.725,-0.317 -0.725,-0.881 0,-0.541 0.29,-0.891 0.703,-0.891 0.373,0 0.719,0.267 0.719,0.875 C 0.697,-0.435 0.469,0 0,0"
           style="fill:#24265d;fill-opacity:1;fill-rule:nonzero;stroke:none"
           id="path617" /></g><g
         id="g619"
         transform="translate(188.7999,46.894)"><path
           d="m 0,0 c 0,-0.211 0.151,-0.39 0.413,-0.39 0.385,0 0.657,0.412 0.657,0.77 V 0.475 H 0.954 C 0.675,0.475 0,0.43 0,0"
           style="fill:#24265d;fill-opacity:1;fill-rule:nonzero;stroke:none"
           id="path621" /></g><g
         id="g623"
         transform="translate(215.4396,46.0414)"><path
           d="M 0,0 H -0.529 C -0.77,0 -0.864,0.04 -0.976,0.246 L -1.488,1.143 C -1.544,1.244 -1.634,1.249 -1.733,1.249 H -1.901 V 0.53 h 0.307 V 0 h -1.427 v 0.53 h 0.412 V 3.429 H -3.05 v 0.529 h 1.149 v -2.19 h 0.374 l 0.463,0.546 h -0.33 v 0.53 h 1.366 V 2.314 H -0.396 L -1.015,1.584 V 1.572 c 0.006,0 0.106,-0.051 0.218,-0.239 L -0.396,0.63 c 0.05,-0.083 0.1,-0.1 0.234,-0.1 H 0 Z m -3.814,2.175 c 0,0 -0.073,0.011 -0.173,0.011 -0.575,0 -0.831,-0.502 -0.831,-1.038 V 0.53 h 0.407 V 0 h -1.527 v 0.53 h 0.413 v 1.66 c 0,0.08 -0.045,0.124 -0.123,0.124 h -0.318 v 0.53 h 0.741 c 0.25,0 0.379,-0.107 0.379,-0.346 V 2.33 c 0,-0.105 -0.01,-0.178 -0.01,-0.178 h 0.01 c 0.129,0.408 0.469,0.73 0.904,0.73 0.066,0 0.128,-0.011 0.128,-0.011 z m -2.265,5.547 h -0.317 v 0.529 h 0.741 c 0.25,0 0.379,-0.105 0.379,-0.346 V 7.738 c 0,-0.105 -0.011,-0.177 -0.011,-0.177 h 0.011 c 0.129,0.407 0.468,0.729 0.903,0.729 0.066,0 0.128,-0.011 0.128,-0.011 V 7.582 c 0,0 -0.072,0.012 -0.173,0.012 -0.574,0 -0.831,-0.502 -0.831,-1.037 V 5.938 h 0.407 v -0.53 h -1.527 v 0.53 h 0.413 v 1.661 c 0,0.079 -0.045,0.123 -0.123,0.123 m -1.054,4.516 c 0,0.875 0.591,1.489 1.445,1.489 0.818,0 1.264,-0.597 1.264,-1.35 0,-0.084 -0.016,-0.24 -0.016,-0.24 h -1.968 c 0.045,-0.524 0.424,-0.791 0.853,-0.791 0.462,0 0.825,0.3 0.825,0.3 l 0.273,-0.5 c 0,0 -0.435,-0.397 -1.148,-0.397 -0.942,0 -1.528,0.681 -1.528,1.489 M -6.978,1.321 h -1.967 c 0.044,-0.523 0.424,-0.791 0.852,-0.791 0.463,0 0.825,0.301 0.825,0.301 l 0.274,-0.502 c 0,0 -0.436,-0.395 -1.149,-0.395 -0.942,0 -1.527,0.679 -1.527,1.488 0,0.875 0.591,1.488 1.443,1.488 0.82,0 1.266,-0.596 1.266,-1.348 0,-0.084 -0.017,-0.241 -0.017,-0.241 m -3.123,5.509 c 0,0.875 0.591,1.488 1.444,1.488 0.819,0 1.265,-0.596 1.265,-1.349 0,-0.083 -0.016,-0.24 -0.016,-0.24 h -1.968 c 0.044,-0.523 0.423,-0.791 0.853,-0.791 0.462,0 0.825,0.3 0.825,0.3 l 0.273,-0.501 c 0,0 -0.435,-0.395 -1.148,-0.395 -0.943,0 -1.528,0.679 -1.528,1.488 m 0.28,6.3 h -0.319 v 0.529 h 0.743 c 0.251,0 0.378,-0.105 0.378,-0.346 v -0.167 c 0,-0.105 -0.01,-0.178 -0.01,-0.178 h 0.01 c 0.128,0.407 0.469,0.73 0.904,0.73 0.066,0 0.129,-0.01 0.129,-0.01 V 12.99 c 0,0 -0.074,0.012 -0.174,0.012 -0.574,0 -0.83,-0.502 -0.83,-1.037 v -0.619 h 0.406 v -0.53 h -1.527 v 0.53 h 0.413 v 1.661 c 0,0.078 -0.045,0.123 -0.123,0.123 M -10.493,2.314 h -0.34 L -11.491,0 h -0.803 l -0.49,1.667 c -0.039,0.145 -0.051,0.312 -0.051,0.312 h -0.017 c 0,0 -0.01,-0.167 -0.049,-0.312 L -13.387,0 h -0.802 l -0.658,2.314 h -0.345 v 0.53 h 1.366 v -0.53 h -0.341 l 0.373,-1.388 c 0.034,-0.14 0.045,-0.307 0.045,-0.307 h 0.017 c 0,0 0.011,0.167 0.044,0.307 l 0.536,1.912 h 0.624 l 0.53,-1.912 c 0.033,-0.14 0.045,-0.307 0.045,-0.307 h 0.015 c 0,0 0.012,0.167 0.045,0.307 l 0.379,1.388 h -0.345 v 0.53 h 1.366 z m -5.365,5.358 c -0.513,0 -0.815,-0.491 -0.815,-0.987 V 5.938 h 0.407 v -0.53 h -1.527 v 0.53 h 0.413 v 1.661 c 0,0.079 -0.045,0.123 -0.123,0.123 h -0.317 v 0.529 h 0.746 c 0.251,0 0.369,-0.117 0.369,-0.317 V 7.806 c 0,-0.062 -0.012,-0.123 -0.012,-0.123 h 0.012 c 0.032,0.088 0.334,0.635 1.048,0.635 0.607,0 0.953,-0.329 0.953,-1.082 V 5.938 h 0.412 v -0.53 h -1.115 v 1.684 c 0,0.345 -0.094,0.58 -0.451,0.58 M -15.953,0 h -0.669 c -0.257,0 -0.362,0.14 -0.362,0.302 v 0.033 c 0,0.078 0.016,0.128 0.016,0.128 h -0.011 c 0,0 -0.223,-0.529 -0.93,-0.529 -0.759,0 -1.244,0.607 -1.244,1.488 0,0.902 0.53,1.488 1.299,1.488 0.608,0 0.819,-0.401 0.819,-0.401 h 0.012 c 0,0 -0.012,0.083 -0.012,0.201 v 0.719 h -0.441 v 0.529 h 1.144 V 0.652 c 0,-0.083 0.044,-0.122 0.122,-0.122 h 0.257 z m -3.895,5.726 v 0.106 c 0,0.072 0.006,0.134 0.006,0.134 h -0.011 c -0.033,-0.095 -0.323,-0.624 -1.037,-0.624 -0.568,0 -0.93,0.306 -0.93,1.081 v 1.299 h -0.441 v 0.529 h 1.149 V 6.546 c 0,-0.34 0.089,-0.575 0.446,-0.575 0.49,0 0.786,0.503 0.786,1.015 v 0.736 h -0.435 v 0.529 h 1.142 V 6.055 c 0,-0.078 0.045,-0.122 0.123,-0.122 h 0.273 V 5.408 h -0.702 c -0.25,0 -0.369,0.117 -0.369,0.318 M -20.043,0 h -1.114 v 1.684 c 0,0.345 -0.095,0.58 -0.451,0.58 -0.514,0 -0.815,-0.491 -0.815,-0.988 V 0.53 h 0.407 V 0 h -1.528 v 0.53 h 0.413 v 1.66 c 0,0.08 -0.045,0.124 -0.123,0.124 h -0.317 v 0.53 h 0.747 c 0.251,0 0.368,-0.118 0.368,-0.319 V 2.397 c 0,-0.061 -0.012,-0.123 -0.012,-0.123 h 0.012 c 0.033,0.09 0.334,0.636 1.048,0.636 0.607,0 0.953,-0.328 0.953,-1.081 V 0.53 h 0.412 z m -4.444,0 h -0.669 c -0.262,0 -0.364,0.14 -0.364,0.302 v 0.033 c 0,0.089 0.018,0.144 0.018,0.144 h -0.012 c 0,0 -0.239,-0.545 -0.897,-0.545 -0.485,0 -0.942,0.284 -0.942,0.864 0,0.869 1.142,0.959 1.6,0.959 h 0.179 v 0.095 c 0,0.361 -0.23,0.49 -0.525,0.49 -0.423,0 -0.802,-0.274 -0.802,-0.274 l -0.262,0.492 c 0,0 0.439,0.35 1.126,0.35 0.763,0 1.17,-0.395 1.17,-1.121 V 0.652 c 0,-0.083 0.045,-0.122 0.123,-0.122 h 0.257 z m -4.49,5.342 c -0.518,0 -1.153,0.222 -1.153,0.685 v 0.329 h 0.602 V 6.188 c 0,-0.195 0.261,-0.294 0.557,-0.294 0.284,0 0.485,0.099 0.485,0.29 0,0.239 -0.268,0.3 -0.647,0.44 -0.418,0.145 -0.897,0.34 -0.897,0.88 0,0.602 0.601,0.814 1.12,0.814 0.413,0 1.026,-0.162 1.026,-0.59 V 7.365 h -0.608 v 0.161 c 0,0.146 -0.166,0.235 -0.418,0.235 -0.223,0 -0.412,-0.078 -0.412,-0.257 0,-0.233 0.278,-0.329 0.596,-0.423 0.435,-0.14 0.948,-0.317 0.948,-0.875 0,-0.575 -0.546,-0.864 -1.199,-0.864 m 0.628,-1.936 h -0.473 V 0.547 h 0.473 V 0 h -1.683 v 0.547 h 0.479 v 1.131 h -1.801 V 0.547 h 0.48 V 0 h -1.684 v 0.547 h 0.475 v 2.859 h -0.475 v 0.552 h 1.684 V 3.406 h -0.48 V 2.264 h 1.801 v 1.142 h -0.479 v 0.552 h 1.683 z m -4.258,4.316 v 0.529 h 1.148 V 5.938 h 0.407 v -0.53 h -1.528 v 0.53 h 0.413 v 1.784 z m 1.148,1.014 h -0.714 v 0.63 h 0.714 z m -1.109,3.357 h 0.663 v -0.295 c 0,-0.257 0.323,-0.407 0.697,-0.407 0.401,0 0.686,0.172 0.686,0.49 0,0.401 -0.453,0.529 -0.91,0.708 -0.529,0.201 -1.047,0.44 -1.047,1.148 0,0.798 0.646,1.104 1.327,1.104 0.624,0 1.254,-0.239 1.254,-0.697 v -0.518 h -0.664 v 0.268 c 0,0.2 -0.294,0.306 -0.59,0.306 -0.324,0 -0.591,-0.134 -0.591,-0.435 0,-0.362 0.367,-0.491 0.78,-0.647 0.591,-0.211 1.182,-0.446 1.182,-1.186 0,-0.809 -0.68,-1.183 -1.427,-1.183 -0.658,0 -1.36,0.296 -1.36,0.893 z m 5.359,1.634 c 0.87,0 1.566,-0.62 1.566,-1.489 0,-0.876 -0.696,-1.489 -1.56,-1.489 -0.87,0 -1.567,0.613 -1.567,1.489 0,0.869 0.697,1.489 1.561,1.489 m 2.014,-7.756 c 0.077,0 0.128,0.006 0.128,0.006 v -0.58 c 0,0 -0.089,-0.016 -0.217,-0.016 -0.402,0 -1.189,0.116 -1.189,1.07 v 1.271 h -0.434 v 0.529 h 0.457 v 0.775 h 0.685 V 8.251 h 0.647 V 7.722 h -0.647 V 6.523 c 0,-0.485 0.369,-0.552 0.57,-0.552 m 0.53,7.688 h 0.44 v 0.128 c 0,0.92 0.737,1.038 1.116,1.038 0.167,0 0.29,-0.022 0.29,-0.022 v -0.57 c 0,0 -0.073,0.017 -0.218,0.017 -0.161,0 -0.479,-0.033 -0.479,-0.445 v -0.146 h 0.641 V 13.13 h -0.641 v -1.784 h 0.479 v -0.53 h -1.6 v 0.53 h 0.412 v 1.784 h -0.44 z m 2.623,0 h 0.457 v 0.775 h 0.685 v -0.775 h 0.647 V 13.13 H -20.9 v -1.198 c 0,-0.486 0.369,-0.553 0.569,-0.553 0.078,0 0.128,0.006 0.128,0.006 v -0.58 c 0,0 -0.089,-0.016 -0.217,-0.016 -0.401,0 -1.187,0.116 -1.187,1.07 v 1.271 h -0.435 z m 2.638,0 h 1.365 V 13.13 h -0.34 l 0.374,-1.389 c 0.033,-0.139 0.045,-0.305 0.045,-0.305 h 0.017 c 0,0 0.01,0.166 0.044,0.305 l 0.535,1.912 h 0.625 l 0.529,-1.912 c 0.034,-0.139 0.044,-0.305 0.044,-0.305 h 0.018 c 0,0 0.01,0.166 0.044,0.305 l 0.379,1.389 h -0.345 v 0.529 h 1.366 V 13.13 h -0.341 l -0.658,-2.314 h -0.803 l -0.49,1.667 c -0.039,0.145 -0.05,0.313 -0.05,0.313 h -0.016 c 0,0 -0.012,-0.168 -0.05,-0.313 l -0.486,-1.667 H -18.4 l -0.659,2.314 h -0.345 z m 7.156,-7.765 c 0.284,0 0.484,0.099 0.484,0.29 0,0.239 -0.267,0.3 -0.646,0.44 -0.418,0.145 -0.898,0.34 -0.898,0.88 0,0.602 0.602,0.814 1.12,0.814 0.414,0 1.027,-0.162 1.027,-0.59 V 7.365 h -0.609 v 0.161 c 0,0.146 -0.166,0.235 -0.418,0.235 -0.222,0 -0.412,-0.078 -0.412,-0.257 0,-0.233 0.279,-0.329 0.597,-0.423 0.435,-0.14 0.947,-0.317 0.947,-0.875 0,-0.575 -0.546,-0.864 -1.198,-0.864 -0.518,0 -1.153,0.222 -1.153,0.685 v 0.329 h 0.601 V 6.188 c 0,-0.195 0.262,-0.294 0.558,-0.294 m -0.073,6.678 h 0.178 v 0.095 c 0,0.362 -0.228,0.49 -0.524,0.49 -0.424,0 -0.803,-0.272 -0.803,-0.272 l -0.261,0.49 c 0,0 0.44,0.352 1.126,0.352 0.763,0 1.17,-0.396 1.17,-1.122 v -1.137 c 0,-0.083 0.044,-0.122 0.122,-0.122 h 0.257 v -0.53 h -0.669 c -0.261,0 -0.362,0.139 -0.362,0.301 v 0.033 c 0,0.09 0.017,0.146 0.017,0.146 h -0.011 c 0,0 -0.24,-0.547 -0.898,-0.547 -0.485,0 -0.942,0.285 -0.942,0.864 0,0.87 1.143,0.959 1.6,0.959 M -36.654,-4.017 H 7.737 v 22.614 h -44.391 z"
           style="fill:#24265d;fill-opacity:1;fill-rule:nonzero;stroke:none"
           id="path625" /></g><g
         id="g627"
         transform="translate(66.7013,200.9779)"><path
           d="m 0,0 c -0.605,-0.952 -1.882,-1.721 -2.704,-2.505 -1.043,-0.994 -2.601,-1.532 -3.898,-2.155 -1.005,-0.484 -2.444,-1.433 -3.524,-1.576 -2.468,-0.329 -2.134,2.34 -1.862,3.968 0.188,1.132 2.869,5.947 4.131,6.237"
           style="fill:#24265d;fill-opacity:1;fill-rule:nonzero;stroke:#2c378a;stroke-width:0.461;stroke-linecap:butt;stroke-linejoin:miter;stroke-miterlimit:10;stroke-dasharray:none;stroke-opacity:1"
           id="path629" /></g><g
         id="g631"
         transform="translate(61.841,202.2738)"><path
           d="m 0,0 c -0.982,-0.555 -4.349,0.011 -5.443,-0.293 -1.388,-0.386 -3.016,-0.127 -4.453,-0.066 -1.115,0.047 -2.831,-0.113 -3.851,0.269 -2.332,0.873 -0.781,3.069 0.226,4.379 0.7,0.909 5.332,3.894 6.582,3.556"
           style="fill:#24265d;fill-opacity:1;fill-rule:nonzero;stroke:#2c378a;stroke-width:0.461;stroke-linecap:butt;stroke-linejoin:miter;stroke-miterlimit:10;stroke-dasharray:none;stroke-opacity:1"
           id="path633" /></g><g
         id="g635"
         transform="translate(75.3038,190.1361)"><path
           d="m 0,0 c -0.037,-0.48 1.714,11.574 2.083,16.581 0.301,4.093 -7.669,18.431 -7.669,18.431 l -7.399,-9.35"
           style="fill:#24265d;fill-opacity:1;fill-rule:nonzero;stroke:#2c378a;stroke-width:0.461;stroke-linecap:butt;stroke-linejoin:miter;stroke-miterlimit:10;stroke-dasharray:none;stroke-opacity:1"
           id="path637" /></g><g
         id="g639"
         transform="translate(75.3038,190.1361)"><path
           d="m 0,0 c -0.541,-3.666 -2.095,-6.505 -4.846,-4.607 -1.951,1.344 -2.218,8.211 -2.017,9.955"
           style="fill:#24265d;fill-opacity:1;fill-rule:nonzero;stroke:#2c378a;stroke-width:0.461;stroke-linecap:butt;stroke-linejoin:miter;stroke-miterlimit:10;stroke-dasharray:none;stroke-opacity:1"
           id="path641" /></g><g
         id="g643"
         transform="translate(91.2218,186.3773)"><path
           d="m 0,0 c -2.38,-3.738 -5.849,-5.787 -7.749,-4.578 -1.9,1.21 -1.513,5.221 0.867,8.958 2.379,3.738 5.848,5.788 7.748,4.578 C 2.767,7.748 2.379,3.737 0,0"
           style="fill:#f14624;fill-opacity:1;fill-rule:nonzero;stroke:none"
           id="path645" /></g><g
         id="g647"
         transform="translate(91.2218,186.3773)"><path
           d="m 0,0 c -2.38,-3.738 -5.849,-5.787 -7.749,-4.578 -1.9,1.21 -1.513,5.221 0.867,8.958 2.379,3.738 5.848,5.788 7.748,4.578 C 2.767,7.748 2.379,3.737 0,0 Z"
           style="fill:none;stroke:#f14624;stroke-width:0.953;stroke-linecap:butt;stroke-linejoin:miter;stroke-miterlimit:10;stroke-dasharray:none;stroke-opacity:1"
           id="path649" /></g><g
         id="g651"
         transform="translate(49.7726,216.9799)"><path
           d="m 0,0 c -2.078,-2.777 -2.618,-5.884 -1.206,-6.94 l 34.615,-25.765 c 1.411,-1.057 4.24,0.338 6.318,3.114 2.078,2.777 2.618,5.884 1.206,6.94 L 6.317,3.114 C 4.905,4.171 2.077,2.776 0,0"
           style="fill:#f14624;fill-opacity:1;fill-rule:nonzero;stroke:none"
           id="path653" /></g><g
         id="g655"
         transform="translate(49.7726,216.9799)"><path
           d="m 0,0 c -2.078,-2.777 -2.618,-5.884 -1.206,-6.94 l 34.615,-25.765 c 1.411,-1.057 4.24,0.338 6.318,3.114 2.078,2.777 2.618,5.884 1.206,6.94 L 6.317,3.114 C 4.905,4.171 2.077,2.776 0,0 Z"
           style="fill:none;stroke:#f14624;stroke-width:0.953;stroke-linecap:butt;stroke-linejoin:miter;stroke-miterlimit:10;stroke-dasharray:none;stroke-opacity:1"
           id="path657" /></g><g
         id="g659"
         transform="translate(82.6408,197.6732)"><path
           d="m 0,0 c -1.09,4.764 -7.552,8.723 -10.834,11.89 -2.359,2.276 -4.479,4.852 -6.883,7.028"
           style="fill:none;stroke:#ffffff;stroke-width:0.922;stroke-linecap:round;stroke-linejoin:round;stroke-miterlimit:10;stroke-dasharray:none;stroke-opacity:1"
           id="path661" /></g><g
         id="g663"
         transform="translate(86.9826,223.5824)"><path
           d="m 0,0 c -3.327,4.261 -6.383,9.952 -11.595,11.935 -7.451,2.834 -17.136,3.665 -25.178,5.094 -4.928,0.876 -9.825,2.217 -14.826,3.09 l -30.848,6.786 V -2.628 c 29.852,-5.38 32.215,-5.226 37.887,-8.161 l -0.007,0.043 c 1.435,-0.842 3.012,-1.517 4.881,-2.055 3.023,-0.87 7.507,-0.821 10.118,-2.101 5.215,-2.558 9.959,-9.643 14.331,-13.513 1.777,-1.573 4.019,-3.99 6.73,-3.793 2.893,0.212 4.194,4.027 3.673,6.299 -1.09,4.763 -7.551,8.722 -10.834,11.889 -2.358,2.277 -4.479,4.853 -6.883,7.029 1.573,1.884 3.737,3.601 4.742,5.88 4.542,-1.844 8.327,-6.539 12.133,-9.202 1.54,-1.077 2.516,-2.808 2.478,-4.687 -0.081,-4.032 -0.942,-8.035 0.731,-11.945 1.199,-2.803 3.594,-3.456 5.084,-3.576 0.695,-0.056 1.263,0.521 1.245,1.217 -0.143,5.466 0.877,11.4 1.318,16.818 C 5.695,-6.165 3.887,-4.977 0,0"
           style="fill:#24265d;fill-opacity:1;fill-rule:nonzero;stroke:none"
           id="path665" /></g><g
         id="g667"
         transform="translate(235.7453,171.9154)"><path
           d="m 0,0 -21.409,13.879 c -2.369,1.853 -4.524,3.541 -7.515,3.862 -2.205,0.237 -24.512,-2.551 -26.643,-3.837 -1.548,-0.933 -16.077,-13.412 -18.939,-16.702 -0.282,-0.325 -0.211,-0.822 0.144,-1.066 2.443,-1.678 5.666,-1.029 8.298,-0.051 5.137,1.908 9.056,6.96 14.221,8.413 1.959,0.551 4.253,-0.879 6.301,-1.689 4.34,-1.717 8.663,-3.774 12.614,-6.31 l -1.827,0.83 c -0.817,-2.339 -2.206,-6.135 -3.238,-8.192 -0.983,-1.957 -2.18,-2.04 -4.158,-1.767 -4.87,0.671 -9.417,2.405 -14.435,1.497 -2.343,-0.424 -10.193,-2.972 -11.357,-3.9 -1.619,-1.289 -0.96,-3.169 -0.296,-4.861 0.131,-0.335 0.427,-0.576 0.783,-0.631 5.981,-0.95 35.201,-5.644 38.909,-6.53 0,0 7.008,-1.352 7.548,-1.22 0.541,0.13 7.651,0.712 7.651,0.712 l 38.209,-16.291 c -0.001,0.813 -0.028,28.285 -0.044,32.982 C 24.815,-10.362 0.428,-0.277 0,0"
           style="fill:#24265d;fill-opacity:1;fill-rule:nonzero;stroke:none"
           id="path669" /></g><g
         id="g671"
         transform="translate(202.8165,168.017)"><path
           d="m 0,0 c -0.073,0 -0.147,0.021 -0.214,0.063 -2.231,1.432 -5.31,2.712 -8.288,3.952 -2.291,0.953 -4.455,1.853 -6.231,2.807 -0.194,0.105 0.01,0.117 0.114,0.311 0.103,0.193 0.14,0.405 0.333,0.302 1.742,-0.936 3.817,-1.741 6.09,-2.686 C -5.187,3.497 -2.074,2.202 0.216,0.732 0.4,0.614 0.454,0.367 0.336,0.183 0.26,0.064 0.132,0 0,0"
           style="fill:#ffffff;fill-opacity:1;fill-rule:nonzero;stroke:none"
           id="path673" /></g><g
         id="g675"
         transform="translate(193.7179,111.0776)"><path
           d="m 0,0 c -1.09,0 -1.974,0.884 -1.974,1.975 0,1.089 0.884,1.973 1.974,1.973 1.091,0 1.974,-0.884 1.974,-1.973 C 1.974,0.884 1.091,0 0,0 m 0,6.056 c -2.254,0 -4.081,-1.827 -4.081,-4.081 0,-2.255 1.827,-4.082 4.081,-4.082 2.254,0 4.081,1.827 4.081,4.082 0,2.254 -1.827,4.081 -4.081,4.081"
           style="fill:#24265d;fill-opacity:1;fill-rule:nonzero;stroke:none"
           id="path677" /></g><g
         id="g679"
         transform="translate(77.0412,167.1938)"><path
           d="M 0,0 -1.387,0.36 0.43,7.346 1.816,6.985 3.145,2.924 Z"
           style="fill:#24265d;fill-opacity:1;fill-rule:nonzero;stroke:none"
           id="path681" /></g><g
         id="g683"
         transform="translate(85.1027,167.5033)"><path
           d="M 0,0 -6.687,1.738 -6.035,4.241 0.65,2.503 Z"
           style="fill:#24265d;fill-opacity:1;fill-rule:nonzero;stroke:none"
           id="path685" /></g><g
         id="g687"
         transform="translate(173.5412,110.099)"><path
           d="m 0,0 0.219,-0.756 -3.81,-1.102 -0.219,0.756 1.546,1.767 z"
           style="fill:#24265d;fill-opacity:1;fill-rule:nonzero;stroke:none"
           id="path689" /></g><g
         id="g691"
         transform="translate(171.1329,113.8197)"><path
           d="m 0,0 1.055,-3.646 -1.366,-0.395 -1.053,3.645 z"
           style="fill:#24265d;fill-opacity:1;fill-rule:nonzero;stroke:none"
           id="path693" /></g></g></g><g
     id="g695"
     transform="matrix(0.35277776,0,0,-0.35277778,-2.041247,-0.3223676)"><path
       d="m 0,0 h -27 m 237.425,0 h 27 M 0,-198.425 h -27 m 237.425,0 h 27 M 6,6 v 27 m 0,-237.425 v -27 M 204.425,6 v 27 m 0,-237.425 v -27"
       style="fill:none;stroke:#ffffff;stroke-width:1.25;stroke-linecap:butt;stroke-linejoin:miter;stroke-miterlimit:10;stroke-dasharray:none;stroke-opacity:1"
       id="path697" /></g><g
     id="g699"
     transform="matrix(0.35277776,0,0,-0.35277778,-2.041247,-0.3223676)"><path
       d="m 0,0 h -27 m 237.425,0 h 27 M 0,-198.425 h -27 m 237.425,0 h 27 M 6,6 v 27 m 0,-237.425 v -27 M 204.425,6 v 27 m 0,-237.425 v -27"
       style="fill:none;stroke:#000000;stroke-width:0.25;stroke-linecap:butt;stroke-linejoin:miter;stroke-miterlimit:10;stroke-dasharray:none;stroke-opacity:1"
       id="path701" /></g></svg>
